<?xml version="1.0" encoding="UTF-8"?>
<svg id="Layer_2" data-name="Layer 2" xmlns="http://www.w3.org/2000/svg" viewBox="0 0 223 128.04">
  <g id="Layer_1-2" data-name="Layer 1">
    <g>
      <path d="M55.93,101.31l-20.97,10.47-7.99,3.93-20.3,9.77-6.08,2.56c-.48-1.11-.71-1.66-.49-1.14l4.83-2.2,7.92-3.91,13.89-8.11,15.89-9.31c3.43-2.01,9.63-4.19,11.5-6.97l2.53-3.78,26.5-13.55,11.13-5.95,29.46-16.46,18.85-10.19,19.1-10.96,7.63-4.36,10.26-5.81,7.83-4.08,19.62-10.01,2.6,2.01,9.47-3.74-3.05,4.78s1.74.98,2.11.86l4.73-1.49c.24-.08.09,1.07-.12,1.2l-11.31,7.03-14.33,7.18c-1.75.88-2.96,1.28-5.88,1.17l8.15-5.3,3.43-2.43-9.65,3.57-9.38,4.51-16.4,8.75-9.65,6.21-19.18,10.89-13.27,8.78-7.83,2.29-11.64,7.05-10.27,5.83-18.86,10.23-20.76,10.68Z"/>
      <path d="M64.49,105.89c-.57.23-2.69.22-3.01.1l4.51-2.18,16.24-7.8,14.17-6.8,31-14.86,8.43-3.76,10.05-5.53,6.68-.78,7.41-3.44,11.55-5.26,11.17-3.95,25.26-10.75,7.93-3.82.23.92-8.47,6.52c-2.7,2.08-4.63,4.74-7.84,6.2l-17.8,8.12-17.24,5.82-9.34,3.72-20.49,8.45-22.13,8.93-21.76,9.14-15.64,6.51-10.91,4.5Z"/>
      <path d="M97.98,102.9l-12.06,4.51c-.23.09-.8-1.11-.65-1.1l32.98-14.24,9.97-4.11,15.22-6.69,17.19-6.86c4.09-1.63,8.79-3.87,12.93-4.15,2.96-.19,4.56-.49,7.11-1.44l3.35-1.23c-1.73,3.44-4.48,5.12-7.97,6.24l-19.75,6.3-6.97,3.05-12.51,4.48-7.7,2.46-8.47,3.39-22.68,9.38Z"/>
      <path d="M173.95,67.25c1.04-.92,3.37-3.07,4.76-3.71l17.11-7.81-2.88,3.64,16.11-6.36c.54-.21,2.56,0,2.95.19l-10.29,4.5-11.77,4.8-10.19,2.99-5.8,1.76Z"/>
      <path d="M152.19,22.7l-4.64,2.99c-.25.16-.23-1.61.16-1.87l20.61-13.49,14.97-9.8c.56-.37,2.32-.6,2.55-.5l-7.67,6.02-18.94,12.12-7.05,4.54Z"/>
    </g>
  </g>
</svg>