<?xml version="1.0" encoding="UTF-8"?>
<svg id="Layer_2" data-name="Layer 2" xmlns="http://www.w3.org/2000/svg" viewBox="0 0 133.79 103.21">
  <g id="Layer_1-2" data-name="Layer 1">
    <g>
      <path d="M10.25,102.47c-2.27-.46-6.41-1.15-7.73-2.62-.68-.76-1.51-3.55-1.82-4.64-1.47-5.13-.74-8.24,3.21-11.29.7-.54-.41-2.36-1.27-3.31,8.25-5.16,15.24-9.74,24.33-6.48,3.62.7,7.73,2.08,9.66,5.37,2.68,4.56-.33,14.27-5.88,17.1-4.45,3.19-9,4.91-14.24,5.72-1.74,1.08-3.8,1.22-6.26.15ZM26.71,92.88l3.73,1,1.11-4.24c.34-.11-1.94.3-2.57.59l-8.06,3.71,3.11,2.93,3.58-.8-.91-3.18Z"/>
      <path d="M119.36,51.38c-3.02-.31-5.48-1.85-6.32-3.53,2.35.55,4.34,1.13,5.71,1.2l4.26.24c.39.02,1.75-1.35,1.54-1.17l-12.83-1.62c-.85-5.82,1.28-10.03,6.39-12.8,2.41-1.31,7.34-1.66,9.99-.58,2.22.9,5.73,4.37,5.68,7.3-.05,3.1-4.05,7.66-4.78,7.02l-2.13-1.86-.02,2.22c-1.13,1.96-4.25,3.91-7.51,3.58Z"/>
      <path d="M82.89,14.52c-1.41.8-5.2.82-7.04.61-3.11-.35-5.29-5.92-2.18-10.8,1.29-2.02,6.37-4.78,8.71-4.26,2.64.58,5.94,2.03,8.35,3.4,1.58.9.77,6.2-.82,7.1l-7.02,3.96Z"/>
      <path d="M54.55,67.03c-1.13.74-4.95-.82-5.1-2.13l-.3-2.65-1.17-.22c-.5-.09-.42-2.24-.05-2.57l3.73-3.39c2.8-2.55,11.35.08,11.19,3.98-.04.98-1.41,2.46-2.44,3.13l-5.86,3.85Z"/>
    </g>
  </g>
</svg>