<?xml version="1.0" encoding="UTF-8"?>
<svg id="Layer_2" data-name="Layer 2" xmlns="http://www.w3.org/2000/svg" viewBox="0 0 298.59 167.55">
  <g id="Layer_1-2" data-name="Layer 1">
    <g>
      <path d="M139.24,75.18l2.26-1.31-5.8.35c-1.03.06-3.03.98-4.66,1.66l-.37-2.64-4.24,2.22-8.12,3.29-11.35,4.32-.49-2.97-4.31,1.87,2.44-1.98-.79-.88-10.01,4.74-23.96,10.08-27.14,11.05-8.77,2.5c-1.59-.11-1.71-.46-.07-.91l18.76-7.67,11.77-5.33,13.07-6.7c-2.54.4-4.49,1.21-6.67,2.11l-7.61,3.16c.81-.9,1.62-1.71,2.21-2l12.93-6.42,10.34-3.96,6.3-2.6,16.69-8.4,7.19-3.67,20.45-8.61,12.68-5.37,19.54-7.53,22.24-7.78,1.72-1.96-17.85,5.85-10.26,3.23-10.72,3.45-4.26-.41-1.76,1.31,2.35.78-15.99,6.78-7.81,2.35-14.22,6.04-25.48,10.47-8.33,3.42-.42-1.42,6.12-2.59,32.16-13.87,20.14-8.95,25.25-9.49c2.18-.82,3.09-1.28,5.19-2.01l14.85-5.15,11.87-4.13,9-3.24c1.4-.26,2.51-.47,1.76-.33l-10.81-4.33-12.7-4.3-11.55-4.06c-.97-.34.73-4.71,1.76-4.68l10.04.35c.75.03,2.68-.44,3.4-.66l28.13,2.28,12.6.15,10.56-.09,9.34-1.43,13.6-.49,7.01-.06c.41,0,.9-1.82.61-1.41l-6.56.35c-.42.02-1.89-.36-2.31-.46s.81-1.1,1.24-1.14l12.44-1.17,11.34-.67,7.4-.29,4.3-.18-3.86,1.7,5.56.52-2.17.73-3.25,1.09,2.28,2.47c.58.63-.14,3.33-.79,3.86l-6.5,5.24-10.89,8.23-5.02,5.75c-2.44,2.8-3.8,6.43-7.11,8l-5.01,2.38-2.12,2.12-3.03,1.12-12.42,14.66-8.39,8.01-2.92,2.03-5.66,5.22c.13-2.21.9-4.01,1.89-4.64l1.62-1.02c.26-.17-1.08-1.71-1.29-1.48l-5.31,5.76-10.72,8.69-7.29,5.56c-.88.67-3.29.15-5.23-.42,1.1-2.71,2.16-4.71,3.7-7.03l4.86-7.28,6.18-12.1,5.33-9.15,2.29-4.07-4.31,1.89-21.65,11.39-26.24,15.77-11.41,7.6-10.79,7.22-11.58,7.39-10.45,7.49-9.28,6.87-14.51,10.44-19.04,12.92-1.45.82c-.29.16-1.68-.98-1.45-1.21l4.81-4.63,9.29-8.72,8.83-7.37,10.21-8.49c.34-.28-1.68-2.48-2.02-2.14-6.54,6.71-8.91,4.71-16.39,8.41l-4.92,2.43-7.36,3.48-5.88,3.19-8.52,5.46-16.63,10.32-16.84,9.19-9.95,5.89-15.9,8.28-7.75,4.04c-.22.11-.56-1.13-.4-1.03l32.12-21.09,11.67-7.26,17.92-11.16,19.91-12.99,13.45-8.59,7.31-4.73,9.9-7.07,8.68-6.29,12.93-9.22,5.32-2.92ZM237.76,58.83c.84-1.23,4.48-2.07,5.06-3.47.66-1.6,1.45-3.36,2.07-4.15l3.63-4.69c-4.69.92-10.98,8.24-13.22,12.64l-3.14,6.14c-1.03-.96-.49-.46.75.69l4.86-7.15ZM170.22,57.97l9.7-4.45,4.96-3.47c.51.82.16.25-.57-.9l-5.3,2.96-17.83,8.27c3.18-.17,5.83-.93,9.05-2.41Z"/>
      <path d="M232.4,4.82l-1.78,1.56-6.49-.39-16.82-.62-10.82-.69-9.35-1.04c-1.9-.21-4.32-1.43-6.18-2.84,3.43-.73,5.9-1.04,8.58-.61l13.26,2.1,13.58,1.54,6.98.29,9.04.7Z"/>
      <path d="M108,89.77l-9.53,3.82c-.23.09-.4-1.11-.18-1.21l11.9-5.58c.22-.1,1,.9.81,1.02l-3,1.95Z"/>
    </g>
  </g>
</svg>