<?xml version="1.0" encoding="UTF-8"?>
<svg id="Layer_2" data-name="Layer 2" xmlns="http://www.w3.org/2000/svg" viewBox="0 0 273.6 152.17">
  <g id="Layer_1-2" data-name="Layer 1">
    <g>
      <path d="M141.93,54.8l4.04-1.96,11.61-5.63c2.64-1.28,5.37-4.37,8.13-5.66l9.63-4.49,20.54-9.52,6.99-3.46,6.91-5.2-3.89-1.54,5.33-.91c6.06-1.03,8.78-5.88,12.67-6.8l8.97-2.11c8.2-1.93,10.81-7.11,18.27-6.2s9-2.78,10.13-.6l-9.85,5.36c-1.03.56-1.79,3.77-2.71,4.38l-5.48,3.63,6.64-1.4c2.52-.53,5.16-1.89,7.51-3.14.37.04,3.26.63,4.04.42l9.78-2.53c.52-.13,1.92.88,2.42,1.24l-2.09,1.44-6.43,3.64-10.9,6.24-5.44,3.43-25.98,15.09-11.81,6.26-12.47,6.52-14.87,9-29.61,16.41-19.03,11.03c-6.04,3.5-11.84,7.01-18.18,9.91l-16.41,7.53-8.14,3.81-8.04,4.19-4.73,2.39c-.25.13.78,1.57.64.78l7.79,1.21c1.91.3,6.2-.85,8.19-.75l11.99.66,9.49.36c1.79.07,5.02,1.21,6.01,2.71l11.28,17.04,6.08,10.66c.42.73-.11,3.68-.9,3.51l-8.49-1.86-6.18-2.06-1.03.54c2.42.97,4.09,1.79,6.63,3.78l-10.73-2.93-11.32-2.91-12.88-3.14-7.97-.7-10.65-.34-4.69-.84-13.47-.55-12.9.83c-5.4.35-12.34-2.28-22.33,4.06-4.38,2.78-8.45,2.94-12.95.64-6.85-3.5-12.91-9.28-10.6-12.79,1.44-2.2,3.53-4.25,5.37-5.77l7.18-5.94,13.09-10.95,6.23-5.71,20.25-19.76,16.16-16.85,9.49-12.56c2.02-2.67,5.1-5.15,7-8l8.98-13.52c2.53-3.81,6.93,2.05,13.31,3.7,2.66.69,5.63.77,7.37,3.26,2.05,2.93,2.2,6,.63,8.88l-3.55,6.54c-1.08,1.99-2.44,4.23-3.87,5.96l-9.59,11.65c-1.52,1.85-4.78,2.56-5.23,6.09l11.23-7.46c1.81-1.2,4.79-4.8,6.85-5.35,2.81-.75,6.94-1.2,8.96-2.46,4.69-2.92,8.31-4.33,13.68-5.85,1.99-.56,5.5-2.96,7.33-4.21l-.85-1.7c-1.17.43-3.2,2.6-4.51,2.71l-4.58.4c.92-1.13,2.2-1.8,4.02-1.98l3.71-3.26c.29-.25,1.4.34,2.68.82l.07.8.04,1.82ZM124.16,147.44c.18-.28.46-.57.21-.7l-2.46-1.27,2.42-.93-9.1-2.53-6.86-1.91c-.24-.07-1.13,1.27-.62.67l5.83,2.12,6.66,2.66,3.03,2.25.89-.38Z"/>
      <path d="M174.09,35.09l-10.57,4.76c-.4.18-2.44-.59-2.05-.78l6.82-3.25,13.68-6.51c.35-.17,1.98.95,2.03,1.04l-3.56,1.95-6.35,2.78Z"/>
    </g>
  </g>
</svg>