<?xml version="1.0" encoding="UTF-8"?>
<svg id="Layer_2" data-name="Layer 2" xmlns="http://www.w3.org/2000/svg" viewBox="0 0 203.58 200.45">
  <g id="Layer_1-2" data-name="Layer 1">
    <path d="M32.73,153.3l6.29-6.42,5.8-5.04,10.71-10.24,1.72-1.63.29-2.71,4.3-4.34c.25-.25.61-1.38.96-2.51l-9.99,6.34-4.32,2.74-4.77,1.51-8.3,7.15c-.33.29-2.1.53-2.68.53l10.04-9.78,14.7-11.45,4.58-3.2,12.9-10.73c-.25-.14-1.61-.51-1.9-.3l-5.65,4.08-14.36,10.42c.8-2.09,1.8-4.06,2.72-4.9l8.37-7.53,4.66-1.63,5.57-4.08,8.1-7.09,15.42-12.59,7.38-6.22c.44,1-.31-1.36-.51-1.23l-4.23,2.87-6.81,4.63-6.01,3.16-5.88,4.68-11.3,8.82-15.05,9.91-8.08,4.92-26.52,13.47-1.62.77c-.35.17-1.44-.25-1.14-.46l5.26-3.69,10.9-8.25,18.71-13.34,7.05-4.88c.63-.44,1.86-2.08,2.41-2.83l1.29,1.28,5.98-4.57c3.7-2.83,5.85-6.11,9.53-8.69l12.4-8.67,4.18-3.67,13.05-9.08,11.72-8.16,8.41-5.89-2.46-1.62,5.58-4.22,4.52-3.42c.29-.22-.45-1.53-.8-1.45l-7.26,1.69-8.9,3.07-12.56,3.45-10.97,2.31c-2.64.56-6.98,2.99-10.09,2.11-1.46-.41-3.26-3.55-3.69-4.93l.89-1.07-.68-1.37c-.99-1.98-.16-1.01,5.57-4.03l11.25-5.92,8.53-3.61,18.72-8.23,9.13-2.63c.27-.08.56,1.18.3,1.29l-6.95,2.91-5.34,2.24,1.98,1.34-3.08,1.83-9.57,4.64-6.6,3.2c-.23.11.04,1.63.3,1.51,1.14-.51,4.14-1.79,5.45-2.07,2.24-.48,5.06-1.91,7.43-3.02l6.13-2.87,14.98-6.12,8.31-2.94,6.36-2.28,30.32-10.87,5.63-2,5.55-1.61c.67-.19,2.92-.3,2.95.35.04.87-.55,2.6-1.33,3.27l-11.34,9.67-5.65,3.51c-.41.25-1.17.91-1.92,1.63,1.07,1.17.87,1.6-.95.76-.25-.85-.69,1.72-.23,1.75,5.38.44,5.71-4.01,12.52-5.85,2.22-.6,4.31-1.23,5.9-2.19l5.85-3.49c.31-.19.94.49.74.83l-2.71,4.58c-1.44,2.45-3.63,3.56-6.52,4.71-2.01.8-4.42,4.83-5.97,6.29-.62.59-2.51,1.62-2.92,2.42l-2.97,5.76c.28.29,1.26,1.34,1.23,1.31l-2.8,3.45c-.2.25-.64,1.54-.97,1.54l-2.37.02c-1.06,0-1.83,2.72-2.54,3.57l-4.09,4.93-7.06,8.93c-.48.61-1.57,2.56-1.77,3.31l-1.32,4.85c-.48,1.76-.4,4.92-1.55,7.19-2.2,4.34.69,5.89-1.96,11.25-.28.08-1.36.09-1.32-.26l.56-4.46c-4.46,4.53-1.62,10.64-3.06,11.95s-5.43,3.64-5.83,5.54l-1.62,7.67c-.13.59-1.5,2.34-1.85,2.59-.76-2.95-1.55-5.7-1.45-7.31l1-15.35-.21-6.99.88-9.11.94-5.96c.06-.39-.08-.39-1.3-1.66l-1.12.64-5.32,6.28-3.35,2.19-7.33,7.5-7.14,7.93-1.41-1.62c-.48,1.07-1.29,2.9-1.87,3.39l-4.23,3.52c-.32.27,1.38,1.15,1.23,1.55s-.75,1.74-1.03,2.05l-5.54,6.12c-.22.24-1.47,1.14-1.5,1.14s-.99-.82-1.63-1.35c.38-.32,1.73-1.51,1.56-2.18l-.66-2.47-3.37,3.4-6.95,7,4.53-1.8,1.67,3.45-4.32,3.36-9.6,9.5-7.06,7.91-29.13,29.85-3.53,3.28c-1.2,1.12-2.59,2.97-3.68,3.41-6.01,2.4-3.09,5.79-7.66,12.49-2.61,3.84-6.26,4.06-9.92,10.17l-1.72-1.72-5.42,5.81c-3,3.21-4.78,3.06-9.33,8.37-.43.5-2.58-.43-2.16-.83l2.28-2.22,1.15-1.12c.77-.75-2.18-4.33,1.09-9.08-2.82-1.25-3.35,3.23-9.56,4.05-1.33-.36-3.02-.81-1.2-.32l8.43-9.54,8.75-10.35,3.65-5.1,4.04-4.99,7.06-7.48ZM24.3,179.78l2.43-4.2,4.73-4.7-1.11-1.39,6.79-6-2.58-.49c-.33-.06-5.94,4.89-9.41,11.22-2.44,4.46-6.8,6.06-9.12,11.86-.32.04,1.66.96,1.89.71l6.38-7.01Z"/>
  </g>
</svg>