<?xml version="1.0" encoding="UTF-8"?>
<svg id="Layer_2" data-name="Layer 2" xmlns="http://www.w3.org/2000/svg" viewBox="0 0 254.73 138.04">
  <g id="Layer_1-2" data-name="Layer 1">
    <g>
      <path d="M187.95,31.78l-5.58,4.49-4.46,3.59,3.68.65-4.27,1.38c1.51,1.16,3.3,2.63,4.15,2.86,1.42.39,4.27-1.38,6.08-2.49,1.68-.3,1.82-.8.21-1.07l-4.67-1.61c-.54-.19,1.56-.85,2.11-.68l4.44,1.39.27-1.73c.06-.4,1-.58,1.62-.98l4.9-3.21c-.04-.08,1.01,1.17,1.18,1.35l2.84-2.05.09-2.05c1.93-.15,4.77-.68,6.15-1.66l7.76-5.53,6.38-4.72c1.03,2.49-2.97,1.67-3.53,7.01-.05.51-1.12,1.06-1.63,1.28l-6.46,2.74,2.54.98c.96-.62.73-.47-.59.39l-5.44,2.38c-.26.11.06,1.73.13,1.59l8.17-.79c.43-.04,1.69,1.07,1.29,1.25l-1.89.83-2.89,1.27c-3.19-1.06-5.92-1.58-8.87-1.55-.12,3.19-2.78,6.84-4.87,6.46l-2.6-2.08c-.66-.53-2.7.42-3.41,1.02l-3.55,3.02,1.11,2.54,6.56-4.06c2.16,2.18-5.66,3.05-3.85,3.79l4.96,2.03c-.47.32-2.44.7-3.57.71l-7.35.04c-.51,0-2.66,1.98-2.02,1.58l3.36,2.97-4.69-1.48c-.66-.21-1.98.82-2.6,1.26l-5.44,3.83,5.24,1.81,5.88,2.72,5.52,3.57c7.4,4.8,17.11-5.05,14.6-6.36l-8.49-4.43-4.73-2.57-3.83-2.08c1.29.21,2.49.45,3.1.68l7.93,2.98,10.68,3.11.06-2.4c.04-1.51,4.97,1.82,6.02.56l2.43-2.9c1.29-1.54,4.91-3.17,7.07-4.28l9.34-4.79,11.84-6.02,8.03-4.04c.1-.16.47,1.3.21,1.5l-9.29,7.35c-4.31,3.41-8.94,5.86-13.65,8.37l-6.65,3.54-6.89,4.88c-.57.4-1.66,2.39-1.7,2.56-.88.16-3.42.71-4.41,1.32l-5.11,3.11-6.36,4.2c-.22.15.58,2.63.32,1.3,3.65-.9,5.41.4,6.39,2.4.35.72,2.09,1.89,2.82,1.86l4.7-.19c.89-.04,2.23-2.35,3.07-2.64l5.27-1.85,11.07-6.57,8.94-3.55,6.78-2.92c.66-.28,2.02-.14,3.68.1.22.36.21.55-.11.46l-8.8,5.12-11.86,6.31-14.33,7.72-1.21,1.99s1.01,1,1.3,1.13l5.43,2.3,2.56-2.4c1.89-.42,3.35-1.07,4.92-2.1l7.99-5.2,9.15-4.69c.65-.33,2.71-.16,3.85-.08l.24,1.48-7.19,3.49-12.12,6.88c-5.4,3.07-4,5.93-9.03,6.03l-2.43.05c-.45,0,.91,1.09,1.28,1.23-.16-.49,1.41,1.12,1.1,1.27l-3.06,1.48,1.29,1.11c1.57-1.3,4.53-1.79,6.46-.81l7.49,3.8,4.14,2.1-6.26.62c-.43.04,1.15.92,1.58,1.08l11.48,4.45,7.06,2.7c.23.09-.09,1.31-.33,1.25l-7.15-1.8c-5.18-1.3-6.43-4.03-6.5-2.2.13,2.66.13,2.62.08,1.59l-8.7-3.03-6.48-2.32-9.12-3.36c-4.97-1.83-9.54,1.84-12.19,6.72l-3.64-1.98c-.29-.16-1.47,1.04-1.2,1.21l1.48.95,6.39,3.36,8.87,4.36,10.2,4.4c.2.09.76,1.63.59,1.28-2.14,1.07-2.03,1.02-.78.39l7.4,4.19c-.46.1-2.23.09-2.84-.16l-13.29-5.43c-9.78-3.99-13.45-2.03-16.53-6.67-2.4-3.62-7.26-2.02-11.58,1.84l-6.78,6.06c-.56.5,1.95,1.76,2.66,2.05l9.03,3.63,7.67,3.56,8.12,4.34c1.25.8,1.17,1.53-.3.92l-10.69-4.44-8.72-3.35-8.05-2.68c-1.04-.34-4.01.96-4.58,1.26l1.06,2.76c1.87.36,4.29,1.15,6.1,2.16l11.4,6.35-1.99.5c-.69.32-1.69.77.09-.04l5.34,3.81c-2.66-.51-3.73-.85-5.61-1.58l-18.73-7.33-10.26-3.84-4.83-1.07c-2.67-.59-7.55-3.41-10.33-3.95l-4.42,4.16-6.79,5.71-1.01-2.54c-.45-1.14,2.15-3.03,3.3-3.63l6.13-3.22-2.13-2.88-5.09-1.53c-1.1-.33-3.25,1.08-4.3,2l-8.12,7.14c-.76.67-2.9,1.48-4.13,1.82l1.64-2.64c-1.5-.19-4.39-.79-5.74-1.33-.22-.09.01-2.2.26-2.24l7.4-1.14c1.53-.24.61-2.22.81-3.37-.02.11,1.25-.29,1.59-.41s.92-2.36.72-2.64c-1.3-1.83-5.23-1.32-7.96.37l-12.27,7.61-9.43,7.91-1.91-1.08,7.38-6.75c1.87-1.71,2.74-2.58,4.42-5.33l1.56,1.93,8.63-6.64-2.11-.12-1.53-.02-2.11-.72c-.84-.36,3.97-.9,2.76-1.38-4.71-1.88-6.04.04-10.06,3.98l.35,1.97c.25,1.38-3.68-1.55-5.91,2.07l-3.46,5.61-1.93-1.63-4.83,3.94,1.4,1.82-6.25,2.69c-1,.43-2.91,2.21-3.77,2.92-.23.19-2.32-.43-1.11-.21l.24-4.58-2.68,2.29-1.27-4.02-9.14,6.64-6.19,3.63c.25.42-.06-.1-1.15-1.91l3.54-4.61,2.72-2.98c4.68-5.14,7.06-5.41,7.43-8.27l3.35-.25,5.58-5.2c.67-.62,1.67-3.12,1.78-3.52l5.03-2.63c.51-.27-1.13-2.29-1.65-2.05l-2.98,1.38-4.17,1.92c-.73.33-1.52,1.91-2.11,3l-2.23.81-6.1,4.99-5.83,3.64-9.18,7.19-8.4,6.45c-2.23,1.72.46-2.96-.11-2.83l-7.35,1.72,3.93-5.79c1.31-1.92,6.11-4.25,7.16-6.42,1.81-3.75,4.45-8.69,8.17-10.87l4.07-5,5.8-4.63c1.33-1.06,2.06-4.11,1.9-6.64l-9.2,7.82-7.4,5.74c-1.47.1-1.52.1-.23.02l2.33,1.76c2.67,2.02-5.4,1.75-8.88,4.04-1.68,1.1.27,4.96-7.02,7.88-.28.11.11-1.45.15-1.74.05-.45-1.14-1.43-1.5-1.16l-7.24,5.34-5.76,4.86c-2.91,2.46-5.59-.2-10.45,2.27l3.24-5.8,3.27-5.74c3.38-5.95,11.1-15.16,13.12-15.47,9.31-1.44,6.83-3.73,10.66-5.51l3.15-1.46-1.91-1.4c-.29-.21,4.03-3.41,1.43-3.18-2.06.18-6.15,1.97-7.61,3.44l-4.36,4.4c-1.42,1.43-5.24,2.33-7.07,3.63l-11.01,7.86-4.62,3.24c-.33.23-1.15,1.76-1.47,1.54l-2.6-1.72,3.08-.98-1.61-1.44,4.12-5.63-.92-2.35c1.01-1.48,3.27-4.55,4.84-5.67l5.35-3.82c2.52-1.8,5.1-3.75,6.28-6.61l.98-2.38c.76-1.86-5.02-2.06-7.35-3.33-1.66-.91-4.27-2.54-5.94-2.91l-15.67-3.55c-1.7-.38-2.89-.65-4.15-1.41,4.04-.93,7.03-1.33,10.53-1.09l11.9.8c8.37.57,9.29,3.69,12.65,3.64l-5.34-4.59c-2.38-2.05-7.89-1.65-14.43-6.25l-6.74-4.74c2.93-1.43,3.77-3.06,8.65-2.76,6.67.41,6.34,3.89,15.16,4.02s13.98,5.98,22.71,3.8c.78-.86,1.43-1.57.53-.58l-6.02-3.21-6.04-3.7-11.88-7.75c2.14.18,4.28.79,5.63,1.57l13.95,8.07,4.22-1-6.28-2.74-5.79-3.03-3.71-2.23-1.31-3.66-4.71-1.46,3.52-3.2-5.03-2.97c-.58.11,2.03-.85,2.35-.6l6.7,5.15c4.02,3.09,9.83,3.38,14.06,6.14l9.09,5.94c2.6,1.7,5.31,1.03,7.93-1.52l-2.28-2.47c-.29-.31,1.36-1.32,1.57-.96l1.34,2.36.23-2.7c.07-.85-1.57-1.42-2.59-2.02l-7.48-4.36-14.98-8.23-5.79-3.38-5.75-4.85c-.51-.43-1.55-2.49-1.53-2.63l10.99,6.05,19.27,7.99c.23.66,1.84,2.52,2.84,2.81l7.96,2.33c1.06.31,3.54-.58,3.57-.92l2.76,2.87c1.33,1.39,5.39-1.57,6.01-1.13.05.04.13,1,.29,2.25l3.66-1.35c.27-.1.76-1.44.47-1.52-.44-.13-1.84-.47-2.15-.77-5.77-5.44-9.8-2.49-17.25-5.88l-10.69-4.86c0-.06-.24-1.54-.2-1.27l8.94,1.64c.88.16,3.01.26,3.79.56l7.5,2.8c4.02,1.5,6.25-1.55,8.88,1.57.66.79,1.48,1.85,2.01,1.62l2.43-1.05-.86,3.58c1.09-.13,3.58-.62,4.3-1.33l4.98-4.9-2.99-.8c-.23-.06-1.56.2-1.54.19.04,0-.42-1.17-.73-1.31l-6.33-3.01-10.35-6.76-3.33-2.17,1.5-1.01c.62-.42,2.41-1.41,3.09-1.04l6.37,3.43,12.52,6.1c3.84,1.87,7.35-3.76,8.26-3.95l-3.59.77c-.54.11-.04-2.35.05-2.67.55.04,2.47.22,3.16.07l5.32-1.19c.32-.48-.59,1.58-.98,1.91l-7.96,6.77c-.49.42,2.79,1.83,2.68,1.2-.73-4.05,2.91.66,8.29-3.85l5.66-4.75-3.57-2.81c-.28-.22-.47-1.77-.79-1.83-.48-.09-1.85-.15-2.29-.37l-10.05-4.88-8.06-3.25-8.72-3.08-9.4-3.6c-2.39-.92-4.04-2.74-4.71-5.37l10.99,6.13,10.33,2.59,14.73,5.31,8.92,3.03,9.04,3.72,7.21-4.95,9.59-7.09,6.19-2.11,9.61-6.23,2.31-1.5c.53-.35,1.8,1.26,1.35,1.78l-3.13,3.62c-2.51,2.9-3.17-.66-8.03,3.75-.24.22-.2,1.61-.01,1.89.15.23.53,1.16.36,1.24l-6.1,2.95c-.44.21-.82,2.25-.78,2.06-1.95.78-4.56,1.91-5.9,2.97l-6.21,4.87c3.77,0,6.65-.46,8.68-1.75l5.74-3.64c-.45-.36-1.81-1.44-1.45-1.16l6.94-3.19,5.5-1.83c.84-.28,2.37-2.08,3.22-2.6l10.17-6.31c.37-.23,2.17-.24,1.82.02l-3.57,2.69-5.73,3.42c-.5.3,1.33,1.98,1.11,1.59l-8.21,3.91,3.36,2.39-2.97,2.96,2.56,1.19,1.11-2.9c2.03,3.1,4.87,3.95,7.21,1.79,4.34-4.02,7.3-.95,9.1-4.61,2.91-5.9,6.91-2.58,10.38-8.75,1.39-2.48,3.56-3.99,6.12-5.04.99.06,1.84.11,1.34.08l1.14,2.4-11.84,8.22c-.88.61-3.54,1.24-4.11,2.03l-1.99,2.75,9.86.8,4.24-.43-2.86,2.64,3.28-.29,2.7-.24-2.22,1.84c-.32.26-.4.72-.78,1.65l-6.57,4.7c-.52.37-1.81,2.23-1.82,2.28ZM166.93,35.94c.09,0-1.15-.02-2.29-.02h-4.37c-.46-.02-2.43.57-2.03.49l6.86,3.14,1.56-1,1.85,1.39c.52.39,2.82-2.87,3.89-2.29l1.49.81,3-1.59-1.68-3.25,4.12-1.52,6.7-4.26,5.14-3.91c.34-.26.9-2.19.45-1.43-4.55-4.12-11.44-1.68-13.32,1.35-.41.65,2.3.83,3.29.59,1.65-.17,1.61.19.31.66l-2.62,2.44-2.82.42c-3.34.5-4.86.96-5.82,2.27-.64.86-3.76,2.56-3.98,1.51l-.54-2.49c-.11-.52-2.26-.08-2.65.29l-4.5,4.27c-1.04-2.58.09.91.36.75l4.38-2.46,3.22,3.84ZM156.25,23.43c-.84-.84-3.37-1.59-4.26-.81l-5.61,4.9c-.28.24.63,1.34.99,1.11l5.48-3.64,2.82-.98.58-.58ZM156.77,23.91l-.51.96c-.91,1.11-3.15,2.06-4.62,3.19l-3.41,2.61c.45.86,4.68,2.35,5.6,1.26l5.45-6.46c.65-1.07,1.03-1.69.66-1.09l-3.17-.45ZM127.27,35.39l5.86-3.5-1.62-2.92-5.83,2.88c-1.94.96-3.57,3.66-4.33,6.36l5.93-2.82ZM141.02,41.56l3.09-1.98-4.08-3.56-3.1,2.68-2.1,2.25,6.2.61ZM158.78,48.41c.92-.04,1.8-2.07,2-3.15.14-.76,5.15-1.32,2.5-2.21l-4.64-1.55c-3.23,1.32-5.08,1.46-8.52,1.23-.08-.35-2.09,3.15-1.21,3.23l5,.45-1.74,2.31,6.61-.31ZM108.12,47.44l3.92-2.45c1.6.45.66-2.59-.3-2l-6.66,4.06-3.96,2.41,1.41,1.47,5.6-3.49ZM126.7,52.29l2.6-2.13,5.15-3.08-5.26-1.24c-1.18,1.65-1.66,2.25-2.37,2.61l-3.86,1.98,3.73,1.86ZM173.24,52.75l-2.53-1.03,4.2-3.95-1.92-1.01c-.67.17-1.89.42-2.11.82l-.54.98c-2.86.19-5.41,1.33-8.41,3.84l2.73,1.5c2.91,1.6,6.53.84,8.58-1.15ZM140.2,56.75l5.64-1.96c.29-.1-.6-.96-.48-1.25l.52-1.25c-6.74,2.06-9.01-3.85-10.02-2.6l-3.13,3.86,2.36.21c.49.04.91,1.09.77,1.57l-.46,1.59c.89-.02,3.87.13,4.8-.19ZM173.06,64.9c-.23-.12-1.94,1.12-1.43.79l-2.08-2.52c-.56-.68-4.59,1.78-5.21.24l-.61-1.53-5.76-.2-2.18-.07c-.42-.01-1.13,2.8-.75,2.97l10.85,4.84c6.12,2.73,14.23,12.95,20.57,4.61.38-.5-.8-2.63-1.49-2.99l-11.91-6.15ZM144.21,70.78c3.09-.56-2.42-3.73-3.1-3.41l-4.28,1.98-.47-2.89-2.14,2.31c-.78.95-.67,1.21.29.74,2.11.55,2.74.59,2.89,1.02l.48,1.4,6.33-1.14ZM94.9,74.31c-.06-.58-.21-2.42.04-2.61l4.49-3.35c-.72.04-1.82.12-2.04.23l-7.62,3.88,3.09,2.23c.39.28,2.11.13,2.05-.39ZM171.19,82.31l-1.38-1.9-19.81-9.31c-.69-.32-2.87-1.1-3.51-.62l-4.72,3.56,10.05,4.98,7.53,3.86c3.92,2.01,6.75,4,11.84-.57ZM110.2,82.91c1.54.68,4.79.94,5.74.71l.18-6.5c.02-.7-.44-2.17-.82-2.67s-2.56-.6-3.07-.25l-5.94,4.07c-.95.65-3.63.35-5.07.25-.13-.07,1.32.98,1.7,1.15l7.28,3.23ZM205.42,80.17c1.52.13-.13,0-1.22-.1l-4.75-4.32c-.44-.4-2.33-.48-2.94-.14l-9.45,5.25c2.18,2.48,8.04,4.01,11.78,2.31l6.57-2.99ZM132.12,85.52l-1.93-3.97-4.76,3.87c-.48.39-1.66,1.65-1.28,2.07l1.45,1.6,5.87-3.08.64-.49ZM66.24,83.61c-6.1-2.92-4.92,2.65-10.73,4.22-.76-.38.48.24,1.92.96l8.81-5.18ZM132.63,86.36l2.36,2.35-5.63-.1s.36,1.5.03,1.86l-1.42,1.51,5,.54c.93.1,2.89,1.41,3.93,1.85l7.7,3.27c1.4.59,6.14-.75,6.16-1.81l.05-2.22,2.64-1.38-3.7-1.9-14.29-6.23c-.41-.18-.84,1.31-1.25,1.5l-1.58.76c-.48.23-.83.4,0,0ZM191.51,90.62l-5.27,3.1c-.26.15-1.2-2.68-.5-.93,1.66-1.27,2.33-1.7,2.55-2.12l1.77-3.36c-.39-.21-3.5-1.08-4.56-.61l-6.61,2.9,3.02-3.37c1.07.2-1.62-.54-1.97-.33l-6.31,3.86,8.46,3.58,7.63,3.03,8.83,3.33,7.63-4.07c-1.33-1.82-3.02-3.72-4.26-4.09l-6.1-1.82-.21,2.78c-1.68-1.17-3.34-2.33-4.1-1.88ZM157.12,95.59c.47-.27,1.83-1.97,1.36-2.09l-2.52-.61c-1.52-.37-1,3.09-6.7,5.04l-2.07.71c-.41.14.04,1.58.47,1.53s1.9-.31,2.27-.52l7.19-4.06ZM122.19,102.41l6.65,1.56,5.6-4.64-9.98-4.08-4.53,4.45c-.24.24-1.84,1.13-1.82,1.13l4.08,1.59ZM166.56,111.55l4.16-4.79,6.43-6.7-7.06-2.4c-1.08-.37-4.36.47-5.47,1.15l-10.47,6.44,7,3.15c1.64.74,4.49,2.38,5.42,3.15ZM133.44,104.65c-.52-.34-1.77,1.88-1.23,2.19,1.47.84,5.38,1.4,6.57.41,1.1-.92,2.16-2.98,2.91-4.86l-7.2-2.92,3.9,4.41c.37-.32-.56.95-.99.88-.4-.07-1.67-.27-1.64-.27.02,0-.44,1.38-.25,1.51.49.32-1.57-1.02-2.08-1.35ZM165.79,116.1l-1.72,2.64c2.32,2.1,6.67,3.36,9.82,1.18l-2.21-1.09,7.99-3.19c2.12-.85,4.84-2.08,6.35-3.65l6.05-6.3-4.67-1.99c-2.07-.88-6.79-3.17-8.89-1.99-2.91,1.63-6.86,6.34-8.94,8.7s3.24.04,8.4,3.91c-.53.13-1.98.43-2.53.37l-4.1-.45c-.43-.05.84.55,2.43,1.42,1.39-1.44-.5.76-.75.71l-7.35-1.23c-.21-.03-.07.11.13.95ZM164.92,114.5l-12.29-5.78c-.67-.31-2.66-1.8-3.27-1.41l-5.54,3.5c.58.56,2.17,1.87,2.5,1.74l5.9-2.28c.31-.12.85.74.53.85l-2.69.93c-.75-.44-.59,2.43.15,2.42l5.61-.03,4.78,2.24c.84.4,3-.87,3.85-1.37l.47-.82Z"/>
      <path d="M196.43,34.37l-6.24-1.28c-.44-.09-1.85-.83-2.23-1.3,1.85-.28,4.25-.74,6.09-.47l5.49.8-3.11,2.26Z"/>
    </g>
  </g>
</svg>