<?xml version="1.0" encoding="UTF-8"?>
<svg id="Layer_2" data-name="Layer 2" xmlns="http://www.w3.org/2000/svg" viewBox="0 0 392.4 227.6">
  <g id="Layer_1-2" data-name="Layer 1">
    <g>
      <path d="M145.04,132.07l-16.7,8.96-15.4,8.65-23.85,14-10.98,6.02-23.16,14.01-9.46,4.35c-.47.22-.8,1.59-1.08,2.66l-2.62-1.66c2.67-3.16,5.61-6.87,9.2-9.39l24.71-17.32,19.41-13.58,10.46-6.55,20.66-14.35,20.85-14.12,12.77-8.21,12.63-7.44,30.38-18.62,4.07-2.77,25.86-15.21,13.3-8.7,46.58-29.47,9.74-7.29L326.59,0l2.35.11-37.7,27.71-6.28,4.74-15.89,12.14-6.67,5.27-19.2,13.87-9.59,6.43-21.53,14.47-8.61,6.32-12.65,9.46-10.46,6.48-15.56,9.64-8.48,5.15c-.37.23,1.47.63,1.85.41l15.85-9.32,13.99-8.38,7.91-4.7c.39-.23,2,.26,2.02.37l-17.47,10.94-13.86,8.08-8.28,4.83-13.3,8.04Z"/>
      <path d="M126.95,160.78l-21.29,11.26-11.92,6.52-11.49,7.35-3.96,1.7-9.7,5.7c-1.73,1.01-3.63,1.67-6.09,2.19l10.08-6.44,7.07-4.63,12.82-7.37c2.77-1.59,5.31-3.23,7.56-5.61l-20.01,11.21-8.01,4.97-16.44,9.47-9.61,5.44-7.05,3.96-26.24,15.46-1.61-.98-8.08,5.65-1.37.96c-.28.19-1.83-1.36-1.55-1.55l4.46-3.01,32.32-20.63,11.39-6.63,16.62-9.37,7.05-4,9.93-6.02,27.91-19.03,24.16-15.82,14.64-9.38,25.21-14.76,8.7-5.23,16-9.27,8.19-6.4,7.54-4.83,5.45-4.63,7.61-5.08,7.33-4.69,9.88-6.11,6.83-5.23.46,3.05,6.42-3.93c.36-.22,1.88.26,1.52.49l-9.58,5.98-13.75,8.49-19.04,11.98-7.82,4.37c-.99.55-2.4,1.93-3.75,3.35,2.05-.43,3.43-.87,4.61-1.59l13.77-8.4,25.32-14.75,6.42-4.62,6.79-4.96c.42-.31,2.78-.99,1.97-.67l-5.92,6.93c-2.68,3.13-9.26,5.18-12.87,7.5l-5.09,3.28-10.37,5.64-30.02,18.84c-7.82,4.91-14.76,9.07-21.69,15.57-2.19,2.05-7.32,3.78-10.15,5.5l-21.19,12.9-9.89,6.53c-.03.14.41,1.02.64.93l9.64-4.01c7.54-3.14,14.75-7.28,21.22-11.76,2.36-1.63,2.96-2.24,6.15-3.23l8.34-2.6c.64-.2,2.15,1.22,1.58,1.6l-16.26,10.76-7.29,2.87-8.9,5.24c-8.23,4.84-16.5,9.02-24.83,12.84-.45.48-.63.69-.75.75ZM122.14,158.76l3.53-2.64c.91-.68,2.44-2.39,3.08-3.23.38-.51-2.16.79-2.73,1.16l-11.18,7.33-5.84,3.76c.23.07,1.96-.04,2.36-.27l6.83-4.02,3.13-1.46.82-.62ZM126.53,158.82l4.61-2.67c.28-.16.92-3.36-.18-2.45l-4.75,3.94-3.63,2.14-.67.28-.81,1.54,5.18-2.4c.12-.22.15-.34.25-.4Z"/>
      <path d="M226.89,140.23l16.23-9.55,16.99-10.04,21.98-14.93-10.75,3.42c-2.72.87-6.98.1-10.54-.4-.31-.61-.63-1.23-.5-.98l7.07-2.8,40.43-17.54,9.89-5.01,21.02-10.01,8.43-3.7,8.84-4.1,12.67-6.34,12.97-6.05,10.77-4.86c-3.65,3.45-6.81,5.49-10.77,7.96l-27.7,17.26-14.53,8.53-9.15,4.94-6.84,3-20.77,10.28-10.16,5.82-20.25,11.79-20.11,10.93-19.68,11.41-13.29,7.21c-.22.12-.62-1.02-.41-1.15l8.16-5.07Z"/>
      <polygon points="216.42 164.54 194.41 172.2 187.06 176.1 186.52 174.88 198 168.52 219.35 158.87 254.75 143.3 268.62 137.2 276.44 134 287.95 129.49 307.99 121.43 309.32 121.99 299.55 128.05 275.78 138.54 257.07 146.77 246.06 151.74 237.85 155.58 223.54 162.01 216.42 164.54"/>
      <path d="M151.18,180.23l-21.53,9.99-2.84,1.16c1.78-1.66,3.58-3.19,5.64-4.27l13.1-6.86,31.91-16.04,8.8-4.28,25.99-13.49c.45.1,1.76,1.34,1.42,1.61l-3.73,3.08-11.57,5.8-20.84,11.29-26.35,12.01Z"/>
      <path d="M77.27,141.71c-.33-.12-.66-1.13-.29-1.39l15.71-10.84,25.23-16.89,24.14-14.82,9.28-5.76,12.66-7.75,17.53-10.66c.29-.18.9,1.07.65,1.23l-6.71,4.22-18.61,11.52-17.89,11.08-26.41,16.56-35.28,23.5Z"/>
      <path d="M103.97,187.16l-6.98,3.43c-.22.11-.52-1.04-.49-1.28l25.5-12.67,11.68-5.28,14.65-6.41,16.92-7.08,14.36-6.74,7.53-3.66,17.5-8.67c.51-.25.75,1.12.24,1.37l-18.88,9.38-17.66,8.52-10.37,4.53-20.32,8.72-8.93,4.08-11.48,5.38-13.26,6.39Z"/>
      <path d="M176.33,126.78l9.47-6.01,3.8-2.59,4.04-2.88,15.76-8.62,1.29.83-15.94,9.15-16.46,10.57c-.49.31-2.35-.21-1.97-.45Z"/>
      <path d="M263.32,130.45c-.39.2-2.8-.84-2.16-.91l16.67-8.19,10.07-4.67c.23-.1.43,1.22.21,1.34l-11.84,5.87-12.96,6.57Z"/>
    </g>
  </g>
</svg>