<?xml version="1.0" encoding="UTF-8"?>
<svg id="Layer_2" data-name="Layer 2" xmlns="http://www.w3.org/2000/svg" viewBox="0 0 199.5 106.76">
  <g id="Layer_1-2" data-name="Layer 1">
    <path d="M79.8,84.41c-.18-.02-1.99.06-2.56.22l-16.59,4.51-17.82,4.97c-1.7.48-5.71-.53-7.48-.79l6.2-4.37c-.69.07-2.44.35-2.98.59l-16.05,7.13-10.05,4.42L.49,106.75c-.29.14-.69-1.6-.38-1.76l17.93-9.52,30.01-14.19,6.6-2.7,6.15-2.42,9.73-4.39,6.15-2.77c.23-.1-.23-1.5-.47-1.42l-8.75,2.95-15.06,6.17-5.06,1.79-4.7,1.31,1.54-5.85c.63-2.41,6.11-4.5,7.91-6.44l4.56-4.91,7.98-4.43,5.51-4.82c3.11-2.72,6.65-4.38,10.07-6.94l7.37-5.53,16.56-13.48,17.79-14.15,8.64-7.49,1.12-.97s1.11,1.16,1.35,1.47c.59.77,1.15-2.65,1.17-3.5.54.32,2,1.43,2.47,1.13L142.96.04c.38-.23,1.87.55,2.56.86l-5.11,4.12,2.91,2.31c.59.47-.73,2.4-1.26,3l-5.21,5.92,7.25-2.51,6.32-1.63,1.83-2.3c.9.3,3.16,1.11,3.86.68l4.5-2.79c.39-.24,1.9.35,2.18.55l-5.72,5.17-6.89,6.06-5.36,4.66-7.9,7.05c-2.69,2.4-4.75,3.4-7.93,5.31l-9.01,5.42c-.43-.7.19.79.43.71l6.19-2.12c2.48-.85,5.49-1.47,7.68-2.62l6.76-3.55c.46-.24,1.74-1.26,2.14-1.11l2.04.79,5.74-2.48,17.64-4.59,18.76-3.25,10.8-.99c.51-.05,1.71,2.02,1.21,2.15l-7.81,1.89c-4.93,1.19-8.46,2.42-12.85,4.65,5.98,1.86,11.41-1.75,17.34.9l-10.62,4.61c-2.16.94-4.74,2.22-7.04,2.55l-12.36,1.75-8.68.57c-.85.06-1.24,2.44-.41,2.29,1.81-.31,5.44-.14,7.68.19-.1.26.48-1.27.59-1.55l9.6-.6,9.52-.15,3.39-.03,1.56,2.91c.55,1.03-3.77.68-4.92.73l-4.41.21,3.84,1.87c-6.07,3.76-9.45,2.01-11.77,3.52l-6.13,3.97-14.46,3.48-5.77,1.18-12.02,2.26-9.1,1.74-11.25,2.21c-.13.02,1.92.71,2.35.67l11.49-.92c.78-.06,1.75,2.45,1.96,2.51-.53.43-2.86,2.37-3.71,2.59l-11.76,3.07-6.96,1.96c-.38.11-1.37,1.39-1.23,1.21-2.34.06-4.62.24-6.57.86l-13.15,4.21-5.03,1.61.3.91,6.79-.7-14.64,5.29-13.58,4.52-17.66,5.54-10.79,2.42c1.49-1.45,2.32-1.71,4-2.24l22.46-7.09,5.84-1.88,16.2-5.05.18-1.11Z"/>
  </g>
</svg>