<?xml version="1.0" encoding="UTF-8"?>
<svg id="Layer_2" data-name="Layer 2" xmlns="http://www.w3.org/2000/svg" viewBox="0 0 101.07 93.66">
  <g id="Layer_1-2" data-name="Layer 1">
    <path d="M39.45,70.67c-4.12,6.37-6.57,9.12-12.42,13.52-.49.37-.39,2.52-.73,3.04l-3.33,5.19-2.95-1.49c-.6-.3-1.74-1.77-1.52-2.4l2.43-7.24-8.75,8.43c-1.08,1.04-3.7,3-5.26,3.88-1.16.65-3.15-3.71-2.54-4.91l2.96-5.84,6.34-9.93c1.43-2.24,3.8-5.16,5.63-7.03l4.62-4.72c-9.76-3.97-16.42.33-23.86-1.94-.49-.15,1.24-1.91,1.77-1.95l3.52-.28-4.78-.97,4.84-3.62c1.04-.78,3.11-1.34,5.23-1.74,1.54-1.9-4.15-.07-9.81-5.57l2.72-.69c1.29-.33,4.22-1.77,5.57-1.87,12.94-.9,28.13.75,30.85-1.84l11.89-11.34,7.56-7.44c5.29-5.21,10.08-9.59,14.54-15.67,1.68-2.29,4.29-4.1,7.47-6.23l-1.94,3.87c-.36.71,1.39,1.8,2.13,2.48,1.19,1.08,1.08,4.63,1,6.34-.04.77,1.52,3.1,1.22,3.83-3.26,7.61-4.68,10.98-11.28,16.29l-5.18,4.17,1.86,1-5.48,2.07c3.11,2.14,6.43-2.23,12.96-1.79l11.69.78c1.83.12,5.23,1.81,6.19,3.25.26.39-.3,1.96.06,2.27l1.79,1.54,3.67,3.17c.2.17.58,1.56.3,1.59l-8.08.92c-.59.07-1.59,2.05-1.56,2.22l3.68-.2-4.91,2.42,11.43,1.71c.43-.1-1.77.71-2.2.67l-8.13-.75c-7.65-.71-14.89-1.2-22.59-1.01l-9.98.25c-1.62.04-5.44.27-6.59,1.32l-7.04,6.48c-1.94,1.78-3.71,3.73-5.05,5.81ZM71.58,51.08c2.18,0,1.67-1.41-.03-1.5l-10.56-.61c-1.22-.07-3.93.64-5.11,1.03l10.43,1.07,5.28.02Z"/>
  </g>
</svg>