<?xml version="1.0" encoding="UTF-8"?>
<svg id="Layer_2" data-name="Layer 2" xmlns="http://www.w3.org/2000/svg" viewBox="0 0 438.5 203.66">
  <g id="Layer_1-2" data-name="Layer 1">
    <path d="M227.98,115.61l-10.91,5.16-15.74,8.11-17.78,8.21-6.23,2.84-9.62,4.36-27.95,12.08-9.09,4.07-12.71,3.17-7.39,2.39.17-.95,9.23-4.48,13.41-6.5c-2.89.42-5.19,1.31-7.75,2.27l-18.23,6.84-16.4,6.56-11.78,5.23-20.41,7.6-11.45,4.4-19.66,7.27-12.01,4.34-6.87,3.75-8.8,1.33,10.86-5.08,43.56-19.35,9.39-4.64,23.13-10.01,30.64-12.38,23.98-9.77,10.23-3.79,14.04-6.05-1.4-.69-12.58,4.85-9.28,2.72-4.74,1.22-5.8,2.04-6.73,2.39-20.18,7.23,1.59-2.02,24.8-9.12,29.49-11.54,18.18-7.11,3.9-.07,8.83-3.6,12.49-5.83,7.23-3.67,18.15-7.94,6.98-3.14c2.44-1.1,8.38.79,11.03.04,3.79-1.07,8.08-3.4,11.45-5.25l9.3-5.11,5.91-1.92,8.03-2.97,6.17-2.74,21.73-10.3,29.75-14.16,8.91-4.04,23.34-12.63,7.13-3.96,19.98-11.11,9.26-6.61c5.3-3.78,9.79-8.48,15.47-11.44l8.68-4.53c1.64-.85,3.01-1.28,5.58-1.55l-3.92,2.38-8.8,5.27c-1.57.94-4.18,3.81-5.44,5.25l-3.68,4.21-7.73,6.57-5.8,4.27-4.99,4.04-20.13,11.66-11.78,6.76,1.41,1.22,7.01-3.39,10.13-5.82,9.1-6.42,1.96,1.29,1.74-.89,10.22-5.21,10.92-8.69c.49-.39,4.22.89,3.07.62l-3.04,1.91c.27,1.49-.31,4.3-1.5,4.73l-6.37,2.33-6.46,4.17-9.23,5.97c-.43.28-2.28,2.29-1.79,2.11l8.88-3.22c.23-.08.38.55.14.7l-8.44,5.44,2.49.04c.43,0,1.27.2,2.17.41l-10.24,4.44-9.77,4.02-10.54,4.49-7.73,4.34-12.33,6.77-3.88,2.13,2.06,1.95-5.51,3.37-12.2,5.97-6.24,3.05-5.02,3.64-11.46,6.58-9.24,4.64-6.76,3.18c-.32.02-.27.22,0,.27,2.74-.25,5.58-.4,7.11.06l2.55.77-8.02,2.87-9.98,3.04-17.53,6.34-17.36,6.75-12.11,3.88-34.22,12.71c-3.68,1.37-8.46,4.84-11.87,5.14s-6.52.06-9.48,1.3l-6.52,2.74c-4.49,1.89-8.17,3.42-13.45,4.13,1.69-2.25,3.47-4.53,4.98-5.36l9.8-5.39,9.62-4.49,23.29-11.73,34.03-17.01,13.64-7.14c-2.05-.1-4.23.23-5.75.93l-20.54,9.53ZM268.98,114.05l6.37-2.97,12.31-7.61,5.37-3.77,4.7-3.51c1.91-1.43,6.68-2.18,9.15-3.45l13.22-6.82,14.48-8.54,8.19-6.77c-6.15,1.82-10.33,3.94-15.18,6.75l-8.82,5.1-26.61,14.27-13.68,7.65-11.93,4.8c-.83.33-1.69,2.73-2.37,3.4-2.96,2.89-9.81,5.22-13.79,7.38l-3.41,1.84c2.61-.2,4.52-.63,6.52-1.45l15.48-6.31Z"/>
  </g>
</svg>