<?xml version="1.0" encoding="UTF-8"?>
<svg id="Layer_2" data-name="Layer 2" xmlns="http://www.w3.org/2000/svg" viewBox="0 0 388.78 236.77">
  <g id="Layer_1-2" data-name="Layer 1">
    <g>
      <path d="M381.37,55.57l-10.82,5.04-7.17,2.38-2.33,2.63-2.07.63c-.44.13-.33-.71-.38-1.95l-9.88,4.33-7.86,3.91c-.84.42-2.07,3.15-2.96,3.13l-3.4-.09-11.23,5.73-15.02,7.05-5.87,3.02-13.95,5.08-9.65,3.95-9.97,4.18-16.43,8.61-21.28,9.84-5.83,2.86-6.22,4.16-6.1,3.65-12.79,5.36c-.42.64-1.02,1.55-.24.36,1.81,1.21,2.49,1.66,2,1.33l-8.56,5c-.42.25-1.48-1.41-1.96-1.33-.64.1-2.33.61-2.82,1.03l-5.32,4.62-14.52,6.59-10.81,5.28-13.22,5.61-9.95,3.98-6.31,2.87-12.2,5.45-9.22,2.95-9.13,4.84-21.55,10.02,1.61-3.95c.25-.05,1.49-.3,1.81-.54l5.43-4.04,14.6-7.52,19.98-10.98,18.89-11.06,21.23-11.82,11.16-5.99,6.39-3.29c.22-.11.52-1.29.26-1.24l-2.82.56c-.5.1-1.04-1.17-1.13-1.43l-1.22,2.69c-1.04-.71-4.17-2.45-5.12-1.85l-6.65,4.19-12.12,7.18-11.54,6.47-8.18,4.69-21.18,12.98c-5.57,3.41-8.12.93-18.06,9.59l-2.83,2.47c-.07-.13-1.47-1.39-1.79-1.01-.96,1.16-2.8,4.33-4.01,5.19l-7.49,5.33c-.73.52-2.35,3.41-2.26,3.09l-6.74,2.96-7.73,3.2-20.43,12.75-10.17,5.86-4.85,3.05-8.13,5.15-10.34,6.17c-.37.22-1.86.25-2.93.2l5.95-3.96,9.22-6.65,11.47-8.62,14.15-9.88,7.11-4.85,16.12-10.97,4.45-3.42,3.08-2.19,4.25-3.52,9.98-8.04,12.1-8.9,24.85-13.26c.67-.36,1.77-1.45,2.48-2.56l-8.97,3.91c-.41.18-.15-1.13-.58-1.24l-2.58-.63c-.27-.07-.32-.62-.15-.84l2.73-3.42-3.3-.25c-1.71-.13-4.22.62-6.2,1.54l-29.44,13.63-11.75,5.46-4.96,1.64c-.23-1.08-.34-1.59-.29-1.34l6.87-2.98,5.53-2.4c3.93-1.99,6.91-5.15,9.04-9.1,2.27,1.87,5.92,2.41,7.9.04l7.03-3c3.72-1.59,7.94-3.43,11.13-5.64l9.98-6.93-1.44,3.86s1.28-.72,1.66-1l10.76-8,8.61-5.76,5.53-4.18,6.7-4.64,6.48-4.69c.44-.32.33-2.3.87-2.43l3.15-.76c2.46-.6,5.51-3.6,8-5.21l10.43-6.71c7.28-4.68,14.13-9.71,21.02-14.92l13.13-9.93,14.2-9.78,8.27-5.79,7.26-5.62,16.36-13.71,10.23-7.85,3.17-2.71,16.45-13.51L308.51.04c.14-.34.08,1.64-.12,1.8l-13.72,10.68c-.97.75-1.58,3.39-2.19,4.28l-3.03,4.41,2.43-1.3,4.7-2.52.12,1.6-12.49,8.28-6.41,4.44-10.05,7.07-5.51,4.37-4.5,4.16-1.73.13-2.17,4.49c-.8,1.65-2.75,4.14-4.49,5.21l-6.2,3.82c-3.08,1.9-5.78,3-7.44,6.31l4.42-3.13,3-.72,6.11-4.47c1.03-.75,2.63-1.09,4.91-.86l-7.69,5.59-4.03,3.04-11.12,9.04.58.84,5.94-3.6c.38-.23,1.65-.26,2.09-.22,6.09.63-1.9,1.89-5.46,4.38l-8.31,5.82-2.79,2.07c-.69.51-.72,3.92.15,3.86.78-.05,2.87-.21,3.55-.6l8.37-4.8,8.65-4.83c1.97-1.1,3.32-1.91,5.2-3.5,3.92-3.31,9.65-4.49,14.06-6.99l8.31-4.7,6.15-3.04c.53-.26,1.71,2.67,1.39,2.3l-5.36,1.21c-.89.2-.97,3.33-1,4.49l-1.11-2.89-2.58,1.1,1.72,2.29c.97,1.3,4.74-.66,6.49-1.78,4.32-2.74,4.79,2.74,10.13,2.78-1.2.82-4.34,2.53-6.06,2.76-2.14.28-3.1.86-4.83,1.78l-5.43,2.86-6.23,3.51-4.97,3.04-.27-3.44-4.69,4.69c-1.17,1.17-3.02,3.45-4.43,4.22l-5.85,3.17c-.28.15-.25,1.61-.16,1.25l4.77-.77c.46-.07.1,2.83-.38,3.02l-5.12,1.96-6.84,3.91-9.03,5.16-7.72,4.4c-1.5.85-5.12,1.79-6.81,2.03-.79.11-1.22,3.14-1.85,3.55-7.96,5.23-20.08,7-24.97,11.58l-3.59,3.36,1.53,1.32c2.85-.65,4.82-1.38,7.16-2.6l16.66-8.64,9.38-4.41,17.01-8.03,10.04-4.98,9.55-3.41,11.35-4.65,6.73-3.17,10.53-5.43,14.47-7.47,17.21-7.83,12.09-5.81,11.28-5.8,11.32-5.69,9.67-4.3,11.87-5.28,12.85-5.75c-.06.92-.21,1.73.1,1.82l2.35.69c1.46.12,2.73.23,1.55.13l-5.93,3.93-18.36,9.05-8.65,2.83-3.61,1.36-4.44,2.36-5.66,3.07c-.24.13-.27-.63.02-1.86l-1.33-1.23-6.13,4.53c-.34.25-2.16-.71-2.41-.37s-.62,1.26-.98,1.47l-6.9,4.2-4.46,3.9-9.63,5.54c-3.6,2.07-6.84,1-15.13,3.49l-1.9.57,1.72,1.08s-.96.85-1.22,1.07c-.22.19.09,1.65.02.74l6.68-3.11c1.09-.51,4.36.61,5.47.19l5.68-2.17,8.02-3.61c3.59-1.62,5.53-3.12,9.42-4,4.54-1.03,9-3.44,13.24-5.46l8.19-3.89,16.76-7.29,9.92-5.13,9.65-3.1c.74-.24,2.68-.25,2.97-.19l-7.42,4.94ZM232.76,97.02c4.74-2.51,3.9-4.46,6.32-4.18l2.46.29c.56.07,1.22-2.29,1.73-2.54l8.22-4.02.64-2.29-4.77.83c-3.61.63-7.41,1.51-9.69,4.53l-2.34,3.1-8.37,5.89c-.23.16-.05,1.5.19,1.37l5.6-2.97ZM219.8,89.2l3.4-2.52-2.46-.82-8.08,6.5c-.41.33,1.43.24,1.9-.05l4.81-2.91.43-.2ZM221.27,90.45l-.61.62-8.51,4.97-6.33,3.59-17.35,12.91-13.85,11.9-3.48,2.95c3.65-1.22,5.86-2.66,8.6-4.69l8.06-5.99,7.53-5.46,5.94-4.02,6.09-4.03c1.2-.79,3.5-2.46,4.31-3.45,5.06-6.16,7.64-4.73,10.58-8.36l-.96-.94ZM133.12,142.99l9.59-7.04,6.59-4.75,19.52-14.5,7.5-6.5c-3.28,1.02-6.01,2.42-8.64,4.31l-14.02,10.11-6.12,4.73-15.68,12.89c-1.09-.51,1.05.89,1.25.74Z"/>
      <path d="M29.86,165.19l14.04-7.4,8.91-4.1,12.7-7.16,18.05-10.15c.71-.4,2.69-.75,3.87-.78l-11.38,7.23.92.08,8.93-1.93c-.03-.46-.27-2.35.12-2.53l6.31-3.07,8.22-5.03c5.54,2.36,6.81-3.63,11.87-4.49l4.88-.83c-1.23-.76-2.43-1.5-1.94-1.19l7.7-2.79c.45-.16,1.36.5,1.03.73l-5.53,3.72-21.74,13.17-8.43,4.62-12.13,7.85-7.6,5.24c-.05.26-1.07-1.13-.77-1.36l6.33-4.82c2.42-1.84,3.49-5.57,2.08-4.85l-6.52,3.31-36.16,17.99-14.68,6.96c-.57.27-2.42.32-2.66.25l6.55-4.17,7.02-4.47Z"/>
      <path d="M71.79,138.41l-5.52,2.95c-.25.13-.27-1.26-.06-1.39l7.8-4.82,7.45-4.8,6.04-3.82,20.72-12.4,9.04-6.93,10.53-7.75,13.94-10.47c.45-.34,2.07-.48,3.26-.38l-12.79,9.59-6.54,4.64c-3.68,2.61-2.18,4.55-8.46,8.25l-20.15,11.89-13.87,8.14-11.38,7.29Z"/>
      <path d="M219.89,39.05l4.69-5.27,9.29-7.11,5.37-4.58c.19-.16.45,1.48.25,1.65l-8.91,7.66-9.14,7.95c-.46.4-1.74.72-2.23.63-.14-.02-.21-.17-.53-.79-.37.06-2.7.77-3.4,1.31l-8.39,6.44c-.24.19-1.5-1.11-1.25-1.28l1.45-.97,11.08-7.39c.32-.22,1.62,1.73,1.28,1.39l.44.36Z"/>
    </g>
  </g>
</svg>