<?xml version="1.0" encoding="UTF-8"?>
<svg id="Layer_2" data-name="Layer 2" xmlns="http://www.w3.org/2000/svg" viewBox="0 0 840.69 129.55">
  <g id="Layer_1-2" data-name="Layer 1">
    <g>
      <path d="M365.9,102.27l3.54-1.62c4.3-1.96,11.77-4.42,15.9-5.22.26-.05,1.39-1.78.75-.93-1.95-1.49-1.98-1.52-1.15-.88l5.75-2.27c.57-.23.21-2.26-.4-2.18l-7.88.97,1.89-1.73c.32-.29,2.19-1.57,1.75-1.5-1.3.2-3.71,1.03-5.18,1.59l-7.21,2.78-17.63,5.67c-1.82.59-3.81.38-5.68-.37l-3.38.88-6.31.12c-.82.64-.33.26.85-.67,2.09-2.34,5.77-5.43,8.9-6.08,2.38-.49,3.63-.89,4.75-2.96,1.63-3.02,3.51-1.25,10.16-4.61l9.44-4.76,8.26-3.58,15.07-5.27-1.46-2.71-6.12,1.42-13.89,4.11-14.91,5.05-8.7,2.39-12.83,4.05-9.9,2.95-11.48,3.51-6.14,2.06c-4.98,1.67-9.09,2.66-14.46,3.77l-7,1.45c-.27.06-.31-.5-.08-.63l8.81-5.12c2.64-1.53,6.7-.53,8.18-3.3,9.35-.45,8.9-6.29,15.43-8.44l13.63-4.48,11.7-4.1,30.43-10.58,9.37-3.61,16.16-4.99-2.85,3.43,4.51-1.97,16.35-7.15c.4-.17,3.05.52,2.76.85l-1.82,1.99-1.61,1.76,4.63-1.62c.47-.16.47-1.82.59-3.32-.03-.1.52-.01.66.34.17.42.72,1.98.74,1.99.02.01,1.18-.03,1.45-.1l9.9-2.65,6.27-1.68-5.76,3.52c-5.37,3.28-11.34,2.2-6.32,3.11l2.33.42-13.03,4.13c-1.38.44-3.16,1.58-4.81,2.98l13.2-3.74,5.58-1.19c1.26-2.41,2.82-3.34,6.05-3.94,2.05.17,1.31-.36.05-.73-2.78-.51-2.96-.56-.68-.15,2.49-.12,4.97-.41,6.16-1.27l3.51-2.51,9.5-5.03,3.77-1.58,1.48,1.41-3.62,1.48-5.75,2.36c-.47.19-1.37.94-2.32,1.72l3.87-1.14c2.36-.7,4.6-1.07,6.82-.74l-12.46,4.43-10.51,3.7-2.03,3.21c-6.27.22-14.35,1.99-16.79,5.77.32.13-1.26-1.25-1.83-1.04l-5.97,2.12-2.71-1.19-6.4,1.48c.16,1.2.43,3.06-.12,3.33l-4.71,2.29c-1.1-1.24.53.83.76.75l12.16-4.43,3.92-.63,11.56-2.7-3.7-.91c-.51.59.05-.06.59-.68,5.15-1.55,9.78-2.67,15.02-3.17,4.7-3.04,9.91-5.15,16.21-4.38l5.52-2.39c.27.13,2.48.41,3.27.22l6.22-1.45-2.1-1.17c-1.23-.07-1.45-.08.05,0l6.42-4.69,3.22,2.6,6.16-4c.87-.56,3.78.96,4.47.2l2.3-2.54c.52-.57,2.76.57,3.52.27l6.02-2.36,6.06-2,8.09-1.82,10.25-2.31c5.31-1.19,11.16-1.83,14.39.87l-2.16,3.09c.87-.07,2.92-.22,3.35-.49l11.71-7.31,9.35-4.97,7.59-3.08c.23-.09,1.26,1.31.33.31l-11.49,8.36-5.95,4.05-9.16,5.37c-2.27,1.33-6.34,4.82-9.06,4.54l-3.19-.33c.16.4.41,2.28-.08,2.67-1.09.87-3.75,2.33-4.33,3.46l-1.98,3.89c8.03-1.47,14.7-3.72,22.16-6.27l18.62-6.37,13.74-5.11,12.5-4.71,8.18-3.23,17.34-6.85c.23-.09,1.67,2.18.74,1.03l-41.45,16.85-25.73,10.25-9.25,3.55c-.88.34-3.7.49-4.32,1.06-2.05,1.89-6.69,5.62-10.46,4.16l4.77-1.95c.31-.13-.13-1.64-.2-1.55l-8.79,2.48-6.3,2.88c-3.89,1.78,1.52.39,7.82-.18l-16.07,5.92-11.79,4.14-11.19,4.84-8.02,3.55c-.17.08.54,1.14.79,1.49l20.76-7.51,13.5-4.43,33.43-11.73,7.92-2.17,13.71-5.12,20.43-7.57,13.03-4.87,8.06-2.17c2.43-.66,7.3-1.32,9.06-2.78l5.08-4.22c.63-.52,3.26.61,4.09.51,7.45-.91,10.9-5.27,17.51-7.74l16.01-5.98,17.47-7.03c-2.86,6.51-9.55,5.42-13.07,8.47,5.28-.46,12.71-2.79,16.89-4.78.64-.3,3.23,1.38,2.78,1.75-.72.59-2.63,1.71-3.4,2.04l-9.3,3.91-9.37,3.7-13.82,6.22-10.66,4.21-18.57,7.44-9.62,3.53-10.2,3.79-11.14,4.56-18.64,6.5-10.88,3.73c.08.12,1.28.97,1.79.87l8.33-1.6,5.99-1.42,16.13-5.95,6.72-2.49,14.75-5.1,9.4-2.78,11.74-3.37c2.6-.75,5.07-.18,7.79-1.21l15-5.72c1.09-.42,4.45.9,5.48,1.23,1.22.38-1.59,4.24-2.59,4.81l-9.12,5.22c-.23.13.13,2.81.02,1.06l4.86.03-2,1.13-1.88,1.07c-.93-.97.44.72.72.63l8.2-2.64,12.15-4.02,18.48-8.26,26.48-11.55,11.09-4.92,21.77-10.16,5.3-2.64-.2,1.8c-.03.26.35,1.63.57,1.5l5.68-3.43c.77-.47,2.92-.63,4.49-.73l-1.15.92-4.49,3.58c-.56-.95.22.69.44.63l5.01-1.27,6.09,1.1c.49-.19-1.63,1.49-2.36,1.73l-16.48,5.4-10.8,4.17-18.18,6.96-12.56,5.75-14.11,5.69c-.44.18-1.75.86-1.83,1.29l-.31,1.66-6.31,2.25c-.23-.1-.67,1.64-.27,1.6l4.52-.4-1.6.93-5.62,3.06c-.37.2.91.98,1.27.83l1.59-.65,10.45-4.26.27-1.3-3.9.06,8.04-3.73,9.55-3.78,12.99-5.8c.18-.08,2.02,1.47,1.53,1.1l-11.44,4.61c-.38-.39.38.96.68.86l10.98-3.68,14.12-6.18,1.36.44-6,4.06c-.56-.81-.28-.41.74,1.08,1.42-.41,1.01-.29-.4.12l-14.86,8.34-10.29,5.63-12.3,5.68c-2.53,1.17-4.6,2.4-7.47,2.57-4.51.26-8.24,1.24-12.23,2.68l-13.37,4.81-7.17,2.58c-.1-.2.2.4.46.95l9.79-1.56,6.45-2.79c.37-.16,2.8,1.38,1.74.91l-5.21,1.86c-.15-.02,1.46.25,1.71.22l7.17-.81.15,1.15-9.22,1.68-7.84,1.25-15.32,3.16-11.74,2.42-8.23,1.74-33.81,8.21-26.61,6.96c-.06-.33-.3-1.76-.21-1.21l23.29-6.45,16.89-4.21,14.06-3.76,6.06-1.62c-1.01-.93-2.23-1.99-2.77-1.87l-6.44,1.42-9.07,2.02-17.78,3.83,2.27.99-6.72,2.47-10.06,2.32-13.29,2.7-19.27,4.52-8.12,1.98-11.58,3.54-19.97,6.28,1.63-4.33,4.2-.37c.51-.04.46-1.86.44-2.53l4.43.68,10.19-4.01,4.73-2.71,5.23-1.96,10.11-3.23,27.96-8.06,2.91-.99-2.16-1.61,5.03-.39-.46-1.53-8.39,1.72c-1.81.37-5.09,1.59-6.69,1.32l-5.2-.87-6.87.12-8.52,1.03-.32-1.7-7.67.21,3.41.85,2.32.58-5.55,1.73c-.85.26-2.83-.55-3.8-.57-4.24-.08-10.16,2.27-14.57,3.65l-25.23,7.9-22.49,6.61-10.34,3.6c-2.54.89-4.74,2.91-7.51,3.14-4.17.35-7.39,1.73-11.16,2.81l-13.16,3.76-5.68,1.63-13.04,3.98-13.25,5.74-5.83,2.54c-1.29.56-4.03-1.72-5.43-2.24l-3.38-1.25,5.56-4.06,17.58-7.8c.38-.17,1.51-2.33,1.07-2.36l-2.24-.15-4.25-.32c-3.03-.23,2.28-.4,9.44-3.64l14.7-6.64,9.12-4.55c.27-.13,2.58.13,1.46.07l.79,1.95,8.26-4.81,12.03-6.83,10.99-6.01,9.93-6.07,5.17-3.48,5.78-2.48c.58-.25,2.19-2.41,1.54-2.37-1.54.09-4.46,1.09-6.16,1.55l-15.9,4.33-12.65,5.95-32.23,10.48,3.74,2.62c2.02-1.53.64.56.27.67l-9.36,2.69-7.15,3.03-9.2,3.63-19.95,6.96-6.33,2.06-8.5,4.21c-1.08.54-3.61.05-4.52-.63l-.56-.61c-1.29.7-4.09,2.14-5.6,2.25l-7.16.54c2.41-3.11,6.52-1.5,8.22-3.55,7.58-9.21,14.6-6.37,12.29-4.92l-2.33,1.45-4.95,3.71.8.74ZM487.94,50.25c-.38.1.5,1.08.91,1.31,4.21,2.32,4.5-.62,10.67,0l8.31.84c1.26.13,3.38-2.67,4.44-3.28l3.11-1.8c1.48-5.73,6.64-10.01,4.51-10.33s-6.7.34-9.08,1.13l-4.73,1.58,4.7.89-7.02,2.36c-1.64.55-3.76.71-5.78.69l-1.16,3.44c-1.63-.27-3.57-.58-4.44-.32l-2.37.7,3.7,1.25-5.76,1.53ZM643.19,55.95l-1.63-2.59c-.37.07.86-.17,1.72-.34l2.16-.44c.43-.09-.65-1.01-1.04-1.22l-2.95-1.54-2.96,3.59-4.85,5.42.94.58,7.63-1.28c.54-.09,2.12-.02,1.93-.38l-.96-1.81ZM428.61,73.86l7.84-2.36,9.37-2.54c.61.66-.7-1.14-.94-1.08l-14.72,3.79c-2.23.57-3.56,1.59-5.05,3.25l3.5-1.07Z"/>
      <path d="M26.81,92.93l-16.07,5.66-10.31,3.41c-.22.07-.58-1.02-.37-1.12l5.17-2.6-2.13-2.04,5.34-.96,6.51-1.17c.46-.08-.3-3.17-.18-2.45l8.62-3.39-2.12-1.89,4.32-1.98,10.36-4.76,20.96-7.02,12.08-3.89,16.85-6.06,5.85-2.2c.22-.08-.35-1.3-.54-1.15-1.72,1.38-6.74,1.12-8.85,1.7l-11.12,3.08-6.81,1.94-5.3.82-14.61,2.75-7.13.22-4.2-.12,2.95-2.02,1.19-1.66c.38-.53,2.12-.38,2.88-.56l14.35-3.29,6.72-2.2,12.24-4.62c-2.56.08-4.48.47-6.75.99l-8.95,2.05-16,3.01-16.08,2.6c-.41.07-2.7-.51-2.45-.51l5.63-1.71,19.7-4.51,8.5-1.66c2.22-.43-4.87-1.7-2.8-2.12l4.09-.82c-.27-.3-1.4-1.35-1.89-1.2l-9.87,2.98c-1.02.31-2.44,2.42-3.49,2.27s-2.99-1.39-3.94-2.2l11.09-2.74,9.39-1.64,9.35-1.36c.47.8-.2-.34-.57-.95l-4.96-2.99c-.41-.25-.76-2.1-.77-2.28l-6.53-2.97c-.4-.18-2.17-1.58-1.78-1.67l6.86-1.58,5.94-.43c.48-.03,2.55.49,2.52.54l-4.49,3.57,3.47-.96c.74-.2.96,2.1,1.31,2.78s1.85,1.18,3.37,1.8l-3.57,2.37,2.73,1.75,13.47-3.36,12.05-2.81,8.32-1.72,10-2,4.59.95,8.81-2.28,13.44-4.09,3.95,2.46c1.32-.86,1.02-.66-.47.3l-10.88,3.25-7.92,2.12-12.45,3.43c-.83.23-2.84,1.27-3.1,2.05l-.91,2.75,8.36-1.13,19.74-6.3,13.83-5.47,5.27-1.5,29.63-9.44,11.51-3.71,17.49-6.98c1.22-.49,4.62-.1,6.13.09l-8.5,5.53c-1.36.88-3.66,1.81-5.31,2.41-.04.32-.35,2.65-.26,1.96l7.35.43c2.15.12,6.08-1.97,8.46-2.72l6.39-2-5.66,3.83c1.72-.17,3.26-.32,4.05-.63l6.95-2.68c6.16-2.37,8.39-5.59,11.77-.77.88-1.12.06-.07-.29.36l-18.86,11.22-8.21,4-10.18,5.37c-.22.12.07,1.38.29,1.27l12.05-5.59,17.23-8,11.17-4.41,11.74-3.82c2.11-.69,4.05-.94,6.9-1.02-2.25,2.19-3.77,3.74-6.17,5.02l-19.63,10.45-9.68,4.37-11.95,6.73,3.43-.37c12.54-5.88,24.99-10.16,38.31-13.74l6.83-3.13,13.22-3.11,8.88-2.05,8-1.12,4.59.06-9.5,4.41-6.72,3.14-8.54,3.51-17.33,6.69-8.34,3-2.5,3.43-9.11,3.34-3.11,2-8.04,2.94-6.36,2.84c.6.27,2.7,1.21,3.54.97l4.98-1.41,12.62-3.58,6.91-1.34,5.66-1.08,6.44-2.3,20.07-7.12,7.41-2.71,1.53-.73c.51-.24,1.65.83,1.24,1.21l-2.06,1.94,11.46-1.59,1.1,2.98-5.82,5.87-11.12,8.95c1.57.19,3.88.09,5.43-.3l13.42-3.37c6.09-1.53,4.23,1.74,10.21-.04l21.09-6.29,17.34-7.59,14.77-5.06,11.75-4.25,7.31-2.71,11-4.01,18.09-5.91,13.19-4.07,12.64-3.9c.23-.07,1.22,1.43.82,1.04l-10.1,3.48-17.67,5.28-10.51,3.52-17.59,6.43-7.45,2.44-17.07,7.07-12.27,5.65-8.61,4.17-27.63,10.24.4,1.23,17.96-6.44,6.61-2.56,8.95-2.57c-1.7,1.29-3.62,2.57-5.3,3.18l-9.74,3.57-8.69,3.06c-.48.17-1.7,1.69-1.57,1.68-1.33-.07-4.29.09-5.99.66l-17.54,5.88-16.92,5.67c-.39.13-1.8.32-1.83,0l-.18-1.9c-.02-.19-.95-1.1-1.13-.99l-7.96,4.61,1.11.85-.45.84-8.13,2.43-11.11,3.32c-.76.23-3.27-.6-4.06-.7.14.02-2.32,5-7.96,3.01l-4-1.41,2.24-1.78-5.86,1.27-16.63,4.49-9.42,2.93-6.45,2.35-13.59,5.65c-1.78.74-4.27,1.17-6.43,1.12l16.32-6.64,15.81-6.18,16.03-4.69,8.94-1.66c.53-.1,2.18-1.12,2.28-1.56l.38-1.65,8.26-4.49,7.36-3.48,18.7-8.46,13.38-8.03c.78-.47,1.06-4.32.23-4.68-1.07-.46-4.03-.39-5.06.15l-5.93,3.14c-.46.24-1.44,1.8-1.7,2.19l4.36-.27c-5.65,4.51-8.63,2.26-12.89,3.8l-11.26,4.09-4.36,1.56c.76-.84,2.39-2.52,3.25-2.92l8.72-4.05c.4-.19-1.73-1.34-2.15-1.19l-12.23,4.43-6.58,1.57c-2.79.66-5.52,2.35-7.83,2.57-1.96.19-3.53.34-4.79.73l-7.74,2.4-8.88,2.73-10.02,2.51c-.66.17-1.71.83-3.1,1.99l7.42-1.64,7.4-1.94c3.37-.89,6.16-2.25,10.08-1.8l-13.09,4.92-11.72,3.59-6.32,2.5-16.71,6.32-8.89,3.03-15.81,6.23-10.13,3.99-1.23-.41,7.87-4.11,17.4-6.64,29.96-11.81c-.21-.72-.43-1.67-.75-1.63l-2.35.29c-2.54.31-5.41,1.99-7.97,3.03l-40.48,16.39-12.38,3.66-7.67,3.52-5.34,2.36,2.68,1.11-3.07.95c-.35.11-1.68.58-1.6.51.08-.06-.06-1.12-.11-1.44-.04-.26-1.21-.58-1.48-.49l-10.19,3.19-5.14.57c-.27.03-.12-1.05.19-1.24l10.8-6.5,8.24-4.06,8.59-4.25,6.24-1.91,6.65-3.59,6.63-5.12,23.13-9.73,7.88-3.3,6.13-2.55c-1.17-.15-2.57-.26-3.09-.07l-12.89,4.72c-.5.18-1.89.1-2.67-.07l12.29-5.39,14.22-6.47,7.48-3.36c1.48-.5,1.28-.81-.17-.84l-8.56,2.73-8.99,3.98-10.33,4.51-12.01,4.16-8.86,3.42-.64-1.98-8.7,2.62c-.29.09-1.67-.51-1.92-.7s.05-.55.35-.6c.46-.08,2.21-.18,2.56-.4,2.02-1.26,6.17-3.91,8.49-4.51,2.14-.56,2.74-.62,4.38-2.48-2.85.42-4.63.78-6.66,1.55l-7.94,3.03-7.05,2.69c-.04-.21-.29-1.61-.15-.82l7.03-3.3,4.45-2.82c-1.83.12-4.2.45-5.58.98l-20.27,7.82-12.03,3.85-8.54,3.65-13.09,4.56-11.56,2.97-11.43,4.2-10.66,3.08,2.28.99-13.88,3.61-24.19,8.87-4.39,1.69-9.03,2.83-.06-1.6,7.86-2.37c4.4-1.33,8.99-3.58,13.1-5.94l8.47-4.85,10.05-5.99,3.01-2.96,9.31-3.41,11.47-5.33,8.41-3.84-9.39,1.66-11.41,3.65-16.84,5.33-15.02,5.13ZM171.26,46.49l25.85-9.7,14.44-5.57,6.93-2.89c-2.5,0-4.84.23-6.76.9l-7.69,2.68-64.94,23.91-9.31,3.39c-.83-.66.75.88.98.81l17.57-5.71,22.91-7.81Z"/>
      <path d="M200.42,110.22c2.1-.97,6.53-1.02,8.34-1.97l4.35-2.28,16.71-6.22,11.75-4.3,11.93-4.17-6.09.52c-.52.04-2.29-.28-2.42-.34l7.89-2.86-.41-2.07,6.04-1.07,12.86-3.72-2.28-1.16,7.3-1.4,5.26-1.87,10.6-3.83,6.65-1.9,7.52-2.49,9.78-3.24,10.95-3.16,6.92-2.84,10.79-4.25,7.68-2.55,21.49-7.43,9.68-2.7c-2.12,1.97-4.27,3.11-6.66,3.81l-9.82,2.9,3.15.86,26.59-9.69,18.77-6.25,10.03-2.95,35.97-11.04,9-3.03,9.5-3.44,10.69-3.46c.87-.28,3.28-.32,4.44-.23l-18.34,6.5-58.8,21.1-15.49,5.58-14.73,5.56-6.71,3.78-9.28,3.89-6.71,2.77,1.78,1.56c-2.74,1.45-5.77,1.89-8.93,1.45.12.08-1.69,1.79-2.45,1.99l-8.62,2.26-14.8,6.24-15.24,5.62-7.43,2.61-11.3,3.86-25.5,8.62-12.06,4.72-13.41,4.73-9.29,3.67-8.1,1.98-14.31,4.46-12.6,3.39-9.92,4.25c-3.24,1.39-6.29,3.82-9.66,3.91-1.98.05-3.03.24-4.54.61l-14.01,3.4-3.04.61c-.66.13-1.47-.64-2.94-1.46-.04-.12-.37-1.26-.25-.83l6.21-.53,1.24-2.32,12.05-4.26,12.05-5.22,10.19-4.69Z"/>
      <path d="M650.74,80.91l9.12-.85-4.78,2.58c-.29.16-.44.09-.14.13l4.78.68-5.97,1.62c.64.28,2.13.65,2.6.56l15.38-3.05c.16-.03-.08-.26-.3-.28l-7.56-.73,14.57-3.47c6.14-1.46,12.21-1.5,18.58-1.78l7.69-1.47-2.51-1.56,6.2-.88.44-2.28c13.53-4.53,11.11-.61,14.65,1.15.86.43,3.16-.61,4.15-.7l13.29-1.12c1.01-.09,3.61.7,3.92.83,1.85-.51,3.75-.78,5.53-.71l5.05.2c4.07.16,8.28-.26,12.22-1.22l6.98-1.7,5.91-1.29,12.41-2.15c2.91-.5,5.68-.36,8.69.1,1.73.27,3.75-.24,5.07-.27,1.19-.03,3.54.56,4.76.16,2.28-.75,3.86-.97,6.18-1.03-.3.66.37-1.13.78-1.16l7-.48,15.16-1.48c.33-.03-.09,1.55-.42,1.68l-5.63,2.13-9.31,1.8-12.03,2.12-20.07,3.58-7.71.2c-1.77.05-3.75-.42-5.53-.98l-3.69,1.3-5.73,1.28-9.23,1.47c-.43.07-2.07.89-1.99.84.06-.04-.04-1.5-.06-2.04-.13-2.46-2.8,1.41-8.16,2.77-2.11.53-4.51,1.04-5.68,1.68-2.87,1.57-4.93,1.9-8.07,2.39l-12.55,1.98-9.9,2.04-7.49.57-15.37.46c-1.8.05-5.48.9-7.02,1.53l-7.09,2.9c-5.18,2.12-7.02-.48-13.73,1.96l-6.79,2.46c-.51.18-.83-2.37-.74-2.4l-3.7-1.47c-.65-.26-.02-2.76.11-3.21l-5.36-.42c-.43-.03-.23-1.85,0-2.2.38-.56,1.41-1.52,2.01-1.96v-.86s-3.58,1.48-3.58,1.48l-.66,1.86c-.57,1.58-3.31-1.07-10.29.88l-6.26,1.75-10.53,1.56-16.4,3.43-10.14,2.9c-6.91,1.98-13.11,4.78-20.58,4.24l3.08-.75,15.65-4.31,10.99-3.16,6.68-2,7.98-1.83-2.53-1.87,4.43,1.27c1.23.35,4.3-.11,5.58-.54l3.33-1.13-6.78-.97,3.34-1.07,8.6-1.59,11.28-3.36c1.22-.36,3.5-2.94,4.73-2.92l9.01.17c1.21.02,3.58-1.38,4.69-1.69l11.07-3.15c3.57-1.02,6.96-.98,11.02-1-.44.32-1.75,1.09-2.18,1.16l-8.31,1.39-7.35,1.88-4.93,1.26,5.63.31c1.07.06.9,2.35-.15,2.12l-7.45,1.5-7.88,1.58-.04.66Z"/>
      <path d="M733.25,54.72l10.28-3.47c.3-.76.62-1.56.39-.98l-16.44,3.18-8.18,1.19-10.9.43c-.77.03-3.16-.37-3.08-.39l18.44-4.02,8.18-1.79,10.82-2.54c4.81-1.13,9.52-2.83,14.41-3.14l12.6-.8,6.37-.54,2.85,3.9,10.72,3c.23-.03-1.7.91-2.4,1.12l-5.65,1.69c-2.12.64-5.51.9-8.08,1.08l-12.26.88-8.32.05-28.1,3.28,8.35-2.14Z"/>
      <path d="M384.69,35.9l-9.48,2.39,1.76-1.42,18.87-6.29,13.29-4.3c.66-.21,3.43.09,3.17.17l-7.74,2.87-8.03,2.97-11.84,3.62Z"/>
      <path d="M117.74,78.79c-.66.12-1.77,1.31-2.12,1.19l-2.92-1.01.13-.78,9.72-1.95c2.09-.42,4.78-1.22,6.64-2.03l3.74-1.63-.27,1.55-10.46,3.87-4.46.79Z"/>
    </g>
  </g>
</svg>