<?xml version="1.0" encoding="UTF-8"?>
<svg id="Layer_2" data-name="Layer 2" xmlns="http://www.w3.org/2000/svg" viewBox="0 0 124.25 78.36">
  <g id="Layer_1-2" data-name="Layer 1">
    <path d="M86.65,40.49c-5.65,2.1-10.4,1.88-15.59,3.4l-9.94,2.92c-.94.28-2.35,2.33-2.83,3.15l-3.82,6.5-2.43,5.32c-.58,1.27-2.57,3.57-3.6,4.47l-2.75,2.38-1.27-1.83-1.5,5-2.16,4.4-.99,1.75c-.94,1.64-3.09-1.9-.49-10.37l1.57-5.11,5.02-14.68-14.52,3.37-16.45,3.83c-.42-.1-1.32-.67-1.03-.99l2.52-2.79c.53-.58-.38-2.54-.83-3.68l5.94-1.07c4.85-.87,8.15-1.61,13.31-3.36.42.24-.68-1.06-1-.96C13.95,48.49-2.78,46.51.39,44.99l7.31-3.51,19-6.07,7.11-1.85c5.22-1.36,12.09-2.2,16.24-5.69,5.36-4.5,6.26-11.79,9.71-17.6l5.44-9.16c.4-.67,3.14-1.58,3.33-.85s.28,2.24.1,2.99l-1.62,6.83,4.41-3.23c2.03-1.49,4.75-3.65,6.87-4.34l4.13-1.34c1.4-.45-.51,4.64-4.02,10.76l-8.05,14.03,5.88.63c1.37.15,4.24-1.72,5.67-2.02l24.19-4.94c2.72-.55,6.79-2.01,9.01-2.04l8.74-.12c.88-.71.19-.15-.65.52-4.13,2.38-8.69,5.34-13.19,6.58l-7.92,2.2-11.79,3.07-12.17,2.96-7.75,2.19c-3.33.94-5.89,2.47-9.23,4.32.46.14,2.25.32,2.79.14l10.24-3.42c4.04-1.35,8.48-1.93,12.64-2.74l6.39-1.24,5.63-.89c0,.4-.07,1.86.29,1.96l4.41,1.22-10.33,3.72-6.56,2.43Z"/>
  </g>
</svg>