<?xml version="1.0" encoding="UTF-8"?>
<svg id="Layer_2" data-name="Layer 2" xmlns="http://www.w3.org/2000/svg" viewBox="0 0 257.05 100.46">
  <g id="Layer_1-2" data-name="Layer 1">
    <g>
      <path d="M89.41,45.02l-20.43,2.98-17.09,3.86-11.59,2.57-17.03,2.99-9.36,1.52-7.43.67c.6-.34,1.8-.96,2.49-1.14l13.97-3.62c9.04-2.34,10.94.94,11.43-1.94l9.28-1.12c.33-.04,1.46-.98,2.03-1.55l-7.93.37c-.83.04-3.16-.41-3.62-.56l9.29-1.75,17.19-2.89,11.48-2.42,27.79-5.06,6.31-1.05-.12-1.34-12.56.89-19.3,2.8-11.55.95c-6.63.55-12.48.03-19.05,1.28l-3.33.64,6.86,1.2-10.41,1.65-11.21,2.25L.48,50.87c-.26-.66-.51-1.3-.48-1.22l6.86-1.13,12.39-2.04c.54-.09-1.16-.47-1.6-.45l-7.08.31,8.08-2.51,2.21-.85-12.37.65c.54-.28,1.85-.86,2.29-.94l5.89-1.14,14.26-2.58,9.22-2.14-14.01,1-.7-.97,30.47-3.82,17.89-2.13,13.85-1.47,13.92-1.31,17.83-1.96,14.76-2.1,22.43-1.9,24.18.11,7.78-.73h5.96c.44-.01-1.35-.8-1.76-.98l-15.37-6.71c-6.53-2.85-12.49-10.43-12.66-10.22l2.97-3.65.63,2.07,9.64,1.94,14.77,2.12,16.16.41,8.37,2.19,10.1,1.16c.92.11,3.28,1.06,3.77,1.28l-8.99-.16c3.58,1.19,6.74,1.04,10.47,1.56l7.02.98,9.95,1.04,7.47.78-5.79,3.29-4.36,2.23-4.48,2.32-5.07,2.93,3.97.29,2.9.9-10.02,5.93-7.25,4.61-11.28,7.63-7.05,4.95-9.03,6.04-7.99,4.98-14.31,8.66-8.01,4.85-.29-2.67-4.41,2.51c-.31.18-.91-1.74-.92-2.13l24.64-17.56c7.11-1.75,7.37-8.32,13.29-12.65l-5.7,2.34-15.24,5.91-7.55,2.39-16.91,5.87-17.61,6.48-13.38,5.81c-1.21.53-3.03.94-4.77,1.07,6.85-5.76,14.53-8.8,22.69-12.44l18-8.04,11.11-4.78,13.98-4.97,6.93-2.66-3.47-1.38,5.5-1.77c.37-.12.11-1.39-.24-1.33l-1.77.28-44.34,5.72-16.07,2.78-51.87,10.17c-3.14.62-5.96.73-9.41.12l21.62-5.01,5.22-2.42,11.48-3.74c-3.78-.26-6.89.44-10.55.91l-9.81,1.26ZM114.43,42.79l8.53-.83,10.61-1.62,8.79-1.17,13.29-1.99-1.87-1.13-9.89,1.06-9.22,1.43-11.22,1.72-11.69,1.89c-.84-.18,2.15.69,2.67.64Z"/>
      <path d="M17.43,84.16c-.61.22-3.4.08-2.76.04l2.98-1.54,12.54-4.63,24.56-8.41,8.5-2.57,38.34-9.52,11.28-1.67-10.74,3.36-12.22,2.72-13.04,2.96-42.7,13.21-16.76,6.05Z"/>
      <rect x="-1.84" y="84.93" width="68.7" height="2.56" transform="translate(-30.37 18.87) rotate(-22.38)"/>
    </g>
  </g>
</svg>