<?xml version="1.0" encoding="UTF-8"?>
<svg id="Layer_2" data-name="Layer 2" xmlns="http://www.w3.org/2000/svg" viewBox="0 0 365.44 180.12">
  <g id="Layer_1-2" data-name="Layer 1">
    <g>
      <path d="M226.49,71.69l17.24-8.7,14.44-7.52,10.81-5.38,8.99-4.48c.42-.21,1.67-1.91,1.24-1.87s-1.61.06-2.01.23l-8.68,3.73-8.67,3.54-9.62,4.53-7.2,1.58-19.26,10.19-2.54-.44-6.98,3.49c-2.69,1.35-4.52,3.41-5.63,6.33l-7.82,3.13-6.34,2.54c.05-.34.19-1.29.17-1.14l10.05-4.7c1.32-.62,3.25-3.01,4.42-4.48,2.62-3.33,9.56-3.85,13.31-9.01l-12.38,5-23.65,9.38-14.23,5.85c-5.39,2.22-9.91,3.9-15.17,6.17l-7.33,3.15-26.87,10.58-1.31-.6,21.43-9.65,11.4-5.45,12.03-6.75c-1.06,0-2.32.03-2.75.19l-7.05,2.68-8.82,3.36-15.63,6.34-25.1,9.93-24.04,10.85-10.66,4.3-14.76,6.1-23.81,9.37-25.12,10.87-6.44,3.16c-.39.19-2.35-.06-2.15-.1l2.78-1.79,13.85-7.25,28.29-12.71,29.36-12.52,15.21-6.78,16.83-6.41,14.63-5.66c.59-.23,2.47-1.88,1.94-1.71l-6.72,2.22-9.61,3.37-18.22,5.67-6.6,1.91c-1.64.47-3.69.7-6.05.73l9.95-4.08,9.81-3.25,17.28-6.58,23.06-9.06c5.53-2.17,8.06-1.29,12.08-2.83l34.08-13.01,12.82-5.07,24.38-8.67,8.01-2.85,24.15-8.97,41.6-15.38,22.11-8.07,13.38-5.67,23.62-7.58c2.18-.7,3.72-.95,5.57-1.9l7.86-4.07c0,.5-.05,1.56-.24,1.68l-7.05,4.66-8.56,4.64-9.73,4.46-10.9,4.73-10.87,3.31c-2,.61-3.71,1.48-5.52,2.95l11.31-3.22,13.16-3.81,14.09-4.09c-1.19,2.1-6.7,4.9-7.85,5.09l-6.77,1.15-15.75,6.63-10.32,3.95-7.93,3.13-3.96,2.68-17.36,7.91c-2.91,1.32,2.15,1.7,1.52,1.99-4.4,2.04-1.95,3.95-9.09,7.04l-12.65,5.48-16.57,8.34-9.09,3.97-6.18,2.68-13.06,7.08-8.48,5.49c-2.88,1.86-4.91,2.82-8.48,3.81-1.91.53-4.71,2.82-6.77,3.95l-14.2,7.76c-2.9,1.58-5.54,2.74-7.96,4.72l14.49-6.29,39.5-17.45,5.49-2.44,22.62-9.44,14.92-6.16,6.07-2.05,6.37-2.25-.2,1.46-10.85,4.45-7.79,3.22-10.83,4.92-12.73,5.35-15.26,6.67-21.45,9.68-21.81,10.27-11.75,4.47-15.76,6.95-14.57,6.46-15.49,6.5-12.52,5.39-9.6,4.45-15.87,7.22-19.45,8.44-18.47,9.42-20.54,9.72-4.83,2.96c-.37.23-1.91-.5-1.54-.72l9.26-5.33,10.28-5.95,20.94-11.12,51.5-26.32,14.85-8.17,17.29-8.71,13.61-7.59,7.09-3.65,9.46-4.6,6.62-3.29,11.09-4.95,16.9-8.05,10.36-5.82,8.94-4.14Z"/>
      <path d="M129.32,112.57l-12.66,6.77c-.56.3-2.26-.97-.32-1.04,2.4-1.89,4.25-3.34,6.31-4.29l17.15-7.9,14.34-6.6,9.67-4.38c6.29-2.85,11.84-6.47,17.48-10.53l5.52-3.98c1.03,1.75,1.17,1.99.73,1.24l-7.06,5.07-9.63,6.2-10.72,5.36-12.77,6.08-10.34,4.72-7.69,3.29Z"/>
      <path d="M254.73,34.03c.74-1.11,1.44-2.16,1.73-2.27l5.57-2.28,20.14-8.22,13.7-5.84c.24-.1.68,1.38.45,1.49l-10.81,4.89-25.71,10.36-5.07,1.88Z"/>
      <path d="M166.35,72.6l-12.93,4.91c-.23.09-1.28-1.76-.69-1.02l19.62-7.93,25.1-10.15c1.66.14,1.77.56.18,1.2l-24.9,10.47-6.37,2.54Z"/>
    </g>
  </g>
</svg>