<?xml version="1.0" encoding="UTF-8"?>
<svg id="Layer_2" data-name="Layer 2" xmlns="http://www.w3.org/2000/svg" viewBox="0 0 379.37 164.08">
  <g id="Layer_1-2" data-name="Layer 1">
    <g>
      <path d="M302.01,51.34l-3.39,1.53-15.69,6.51-5.69,1.47-11.81,4.83-19.63,7.48-10.96,4.32-15.03,6.24c-.33.14-.3,1.45-.02,1.35l9.37-3.57,7.73-2.62,12.2-4.6,23.28-8.65c3.9-1.45,7.32-3.09,12.01-3.47l-19.97,9.58c-12.03,5.77-24.86,9.28-37.64,13.13l-23.08,6.95-20.5,8.67c6.9,2.7,12.39-2.94,16.67-1.05l-6.78,2.02-7.6,1.8-6.44.8-14.88,4.5-15.29,4.51-27.12,7.86-14.05,4.98-19.59,7.53-35.28,12.77-19.49,6.5-17.69,5.45-14.45,5.92c-.23.09-1.78-1.57-.96-.84l6.13-2.74,20.66-8.36,16.19-6.73,19.53-8.49,10.82-4.16,27.75-11.22,6.45-2.47,14.56-5.45,12.1-4.89,23.37-8.77,20.83-7.18,21.75-7.17,12.58-4.59c2.25-.82,4.89-3.66,6.25-5.59l-6.38.86c-1.53.21-4.25.54-5.61,1.04l-12.64,4.67-23.12,8.14-1.13-.53,4.47-3.31,6.64-3.67,16.46-7.41,17.71-6.56,8.95-3.78,13.91-4.18,23.06-7.97,18.23-6.63,9.15-2.96,25.71-8.32,20.8-7.19,9.37-2.72,7.55-1.89v.77s-4.46,2.32-4.46,2.32c-.19.1-.94,1.2-.74,1.13l9.46-2.95,5.65-1.76-3.24-.71.43-.8,10.95-2.47,8.65-1.95c.25.95.39,1.48.33,1.25l-5.69,2.07-3.46,2.82-9.47,3.3-11.09,4.88-17.9,7.21-9.5,3.46-8.42,3.48-10.99,5.6.63.69,5.77-1.48,3.75-.52c3.02-1.21,5.6-2.15,9.27-1.94l-19.17,6.56-.35-2.45-.74-.2ZM327.16,35.04l6.1-2.67,7.69-3.15c-6.36.45-11.2,2.64-16.28,5.34,1.02.31,2.09.66,2.49.48ZM218.53,79.52l6.78-1.66,6.94-2.29,8.66-3.27,11.04-4.52c-.9-.62-2.1-1.19-2.78-1.02l-4.86,1.19-5.41,2.46-6.16,2.54-12.48,4.64-1.74,1.94Z"/>
      <rect x="97.12" y="101.43" width="63.32" height="2.27" transform="translate(-28.08 52.57) rotate(-20.85)"/>
      <path d="M103.36,9.48l-14.16,5.76c-.23.09-1.61-1.9-.87-1.05l11.68-5.37L121.11,0c.23-.09,2.21,1.6,1.13.82l-5.72,2.97-13.17,5.68Z"/>
      <path d="M168.24,13.74l-17.13,8.44c-.33.16-.74-1.36-.4-1.53l15.08-7.04c.72-.33,3.51-.08,2.44.12Z"/>
      <path d="M71.82,74.96l-8.89,5.15c-.22.12-.51-1.34-.29-1.46l10.49-5.94c.38-.21,3.02-.38,2.66-.16l-3.97,2.41Z"/>
    </g>
  </g>
</svg>